<svg width="1367" height="412" viewBox="0 0 1367 412" fill="none" xmlns="http://www.w3.org/2000/svg">
<path d="M1319.5 325.711H1313.19V297.57C1316.6 297.376 1319.84 297.078 1322.88 296.695L1322.89 299.52C1322.34 299.542 1321.84 299.615 1321.45 299.724C1320.84 299.899 1320.55 300.151 1320.55 300.498L1320.55 301.175C1320.55 301.221 1320.56 301.264 1320.58 301.303C1320.41 301.407 1320.26 301.521 1320.13 301.65C1320.08 301.592 1320.01 301.558 1319.94 301.558C1319.89 301.558 1319.84 301.575 1319.8 301.606L1319.75 301.64C1319.72 301.667 1319.68 301.684 1319.64 301.703C1319.6 301.725 1319.57 301.745 1319.53 301.769C1319.36 301.88 1319.21 302.014 1319.02 302.179C1318.56 302.637 1318.23 303.173 1318.06 303.772C1318.03 303.765 1318 303.76 1317.99 303.76C1317.89 303.76 1317.79 303.828 1317.75 303.932C1317.56 304.413 1317.47 304.908 1317.47 305.41C1317.47 306.753 1318.18 308.029 1319.41 308.915C1319.64 309.082 1319.87 309.227 1320.1 309.346C1320.21 309.404 1320.33 309.46 1320.44 309.506C1320.48 309.526 1320.53 309.538 1320.59 309.543C1320.59 309.543 1320.59 310.484 1320.59 310.489C1320.59 310.503 1320.59 310.518 1320.59 310.532C1320.61 310.661 1320.69 310.763 1320.79 310.789C1320.9 310.935 1321.29 311.187 1322.93 311.214V311.896C1322.77 311.932 1322.63 312.063 1322.56 312.247C1322.54 312.301 1322.53 312.361 1322.52 312.419C1322.35 312.436 1322.19 312.56 1322.11 312.744C1322 312.672 1321.88 312.638 1321.75 312.638C1321.67 312.638 1321.58 312.655 1321.49 312.691C1321.15 312.825 1320.95 313.179 1320.97 313.593C1320.98 314.006 1321.22 314.333 1321.57 314.423C1321.63 314.442 1321.7 314.45 1321.76 314.45C1321.9 314.45 1322.02 314.401 1322.12 314.338C1322.2 314.522 1322.35 314.644 1322.53 314.663C1322.54 314.724 1322.55 314.784 1322.57 314.843C1322.63 315.015 1322.77 315.138 1322.93 315.18L1322.93 315.541C1322.89 315.563 1322.85 315.599 1322.82 315.645C1322.73 315.692 1322.66 315.796 1322.66 315.919V316.31C1322.66 316.383 1322.68 316.448 1322.72 316.502C1322.72 316.519 1322.73 316.533 1322.74 316.55L1322.62 320.21C1322.62 320.293 1322.64 320.37 1322.69 320.429C1322.74 320.484 1322.81 320.518 1322.88 320.518H1323.67C1323.74 320.518 1323.81 320.484 1323.86 320.429C1323.91 320.37 1323.93 320.293 1323.93 320.21L1323.81 316.56C1323.82 316.54 1323.83 316.519 1323.83 316.497C1323.87 316.446 1323.89 316.38 1323.89 316.31V315.919C1323.89 315.796 1323.82 315.692 1323.73 315.645C1323.7 315.604 1323.67 315.57 1323.62 315.548V315.206C1323.79 315.17 1323.93 315.044 1323.99 314.862C1324.01 314.806 1324.02 314.743 1324.03 314.682C1324.21 314.668 1324.37 314.544 1324.44 314.355C1324.53 314.408 1324.65 314.45 1324.79 314.45C1324.79 314.45 1324.85 314.447 1324.85 314.447C1325.08 314.428 1325.29 314.294 1325.43 314.078C1325.61 313.804 1325.64 313.458 1325.51 313.157C1325.37 312.844 1325.09 312.643 1324.8 312.643C1324.68 312.643 1324.56 312.674 1324.45 312.735C1324.38 312.546 1324.22 312.417 1324.04 312.402C1324.03 312.339 1324.02 312.279 1324 312.218C1323.93 312.036 1323.79 311.908 1323.62 311.876V311.209C1324.13 311.195 1324.59 311.156 1324.95 311.093C1325.47 311.005 1325.72 310.896 1325.81 310.709C1325.89 310.654 1325.93 310.561 1325.93 310.46C1325.93 310.457 1325.93 309.438 1325.93 309.438C1325.93 309.339 1325.9 309.252 1325.84 309.172C1325.9 309.147 1325.98 309.113 1326.06 309.067C1326.09 309.053 1326.12 309.036 1326.15 309.019C1326.2 309.118 1326.28 309.179 1326.38 309.179C1326.4 309.179 1326.45 309.167 1326.47 309.162C1326.52 309.14 1326.58 309.113 1326.63 309.087C1326.68 309.065 1326.72 309.048 1326.79 309.024C1326.86 308.995 1326.93 308.968 1326.99 308.932C1327.28 308.769 1327.58 308.514 1327.92 308.131C1328.2 307.816 1328.43 307.474 1328.6 307.115C1328.87 306.562 1329.02 305.951 1329.01 305.351C1329.01 304.852 1328.92 304.362 1328.73 303.898C1328.69 303.794 1328.6 303.726 1328.5 303.726C1328.48 303.726 1328.45 303.734 1328.43 303.738C1328.26 303.176 1327.97 302.671 1327.55 302.235C1327.37 302.043 1327.15 301.897 1326.94 301.757C1326.94 301.757 1326.75 301.626 1326.67 301.575C1326.64 301.553 1326.6 301.541 1326.56 301.541C1326.49 301.541 1326.42 301.582 1326.36 301.655C1326.22 301.521 1326.06 301.4 1325.87 301.284C1325.89 301.245 1325.9 301.204 1325.9 301.16L1325.89 300.469C1325.89 299.685 1324.28 299.54 1323.55 299.513L1323.54 296.607C1343.43 293.988 1354.91 288.028 1354.91 288.028C1360.07 286.165 1365.76 281.038 1366.04 274.176C1366.09 272.825 1365.19 271.678 1364.01 271.612C1362.85 271.549 1361.84 272.592 1361.78 273.945C1361.58 278.729 1356.62 282.066 1353.63 283.352C1350.76 284.586 1346.67 285.023 1343.26 284.807C1332.12 281.52 1315.49 276.034 1304.78 269.851C1302.46 268.51 1300.17 267.076 1297.91 265.573V253.879H1294.35V235.013C1298.17 234.834 1301.73 234.48 1304.97 234.011L1304.98 236.723C1304.44 236.745 1303.93 236.815 1303.55 236.927C1302.94 237.102 1302.64 237.354 1302.64 237.698L1302.65 238.375C1302.65 238.421 1302.66 238.467 1302.67 238.506C1302.51 238.608 1302.36 238.724 1302.23 238.853C1302.18 238.795 1302.11 238.761 1302.04 238.761C1301.99 238.761 1301.94 238.778 1301.9 238.809L1301.85 238.843C1301.82 238.87 1301.78 238.887 1301.74 238.906C1301.7 238.928 1301.67 238.947 1301.63 238.969C1301.46 239.083 1301.3 239.217 1301.12 239.382C1300.65 239.84 1300.33 240.374 1300.15 240.973C1300.13 240.968 1300.09 240.963 1300.08 240.963C1299.98 240.963 1299.89 241.028 1299.85 241.135C1299.66 241.613 1299.56 242.11 1299.56 242.612C1299.57 243.954 1300.28 245.232 1301.51 246.115C1301.74 246.282 1301.97 246.428 1302.2 246.549C1302.31 246.607 1302.42 246.661 1302.53 246.709C1302.58 246.728 1302.63 246.741 1302.68 246.745C1302.68 246.745 1302.68 247.687 1302.68 247.691C1302.68 247.706 1302.69 247.721 1302.69 247.733C1302.71 247.864 1302.79 247.963 1302.88 247.992C1303 248.138 1303.38 248.39 1305.03 248.417V249.098C1304.87 249.135 1304.73 249.266 1304.66 249.448C1304.64 249.503 1304.63 249.562 1304.62 249.622C1304.44 249.639 1304.29 249.76 1304.21 249.947C1304.09 249.874 1303.98 249.838 1303.85 249.838C1303.77 249.838 1303.67 249.857 1303.59 249.891C1303.25 250.027 1303.04 250.381 1303.06 250.796C1303.08 251.208 1303.32 251.534 1303.67 251.626C1303.73 251.643 1303.79 251.652 1303.86 251.652C1304 251.652 1304.12 251.604 1304.21 251.541C1304.29 251.725 1304.45 251.846 1304.63 251.863C1304.63 251.926 1304.64 251.987 1304.67 252.045C1304.73 252.218 1304.86 252.339 1305.03 252.382L1305.03 252.744C1304.98 252.766 1304.94 252.802 1304.92 252.848C1304.82 252.892 1304.76 252.999 1304.76 253.122V253.513C1304.76 253.583 1304.78 253.651 1304.82 253.702C1304.82 253.719 1304.83 253.736 1304.83 253.753L1304.72 257.413C1304.71 257.493 1304.74 257.573 1304.79 257.629C1304.84 257.687 1304.9 257.721 1304.97 257.721H1305.77C1305.84 257.721 1305.91 257.687 1305.95 257.631C1306 257.573 1306.03 257.493 1306.03 257.413L1305.91 253.763C1305.92 253.741 1305.92 253.721 1305.93 253.7C1305.97 253.646 1305.98 253.583 1305.98 253.513V253.122C1305.98 252.999 1305.92 252.892 1305.83 252.848C1305.8 252.804 1305.76 252.773 1305.72 252.751V252.409C1305.88 252.373 1306.02 252.247 1306.09 252.065C1306.11 252.006 1306.12 251.946 1306.12 251.885C1306.31 251.868 1306.46 251.745 1306.54 251.558C1306.63 251.611 1306.74 251.652 1306.89 251.652C1306.89 251.652 1306.94 251.65 1306.95 251.65C1307.18 251.631 1307.39 251.495 1307.53 251.281C1307.71 251.005 1307.73 250.66 1307.6 250.357C1307.47 250.044 1307.19 249.843 1306.89 249.843C1306.78 249.843 1306.66 249.877 1306.55 249.937C1306.48 249.746 1306.32 249.62 1306.13 249.605C1306.13 249.542 1306.12 249.479 1306.09 249.421C1306.03 249.239 1305.89 249.11 1305.72 249.079V248.409C1306.23 248.397 1306.69 248.356 1307.05 248.295C1307.57 248.208 1307.82 248.099 1307.91 247.91C1307.98 247.856 1308.03 247.764 1308.03 247.662C1308.03 247.66 1308.03 246.641 1308.03 246.641C1308.03 246.542 1308 246.452 1307.93 246.372C1308 246.348 1308.08 246.314 1308.16 246.27C1308.19 246.256 1308.22 246.239 1308.25 246.222C1308.29 246.321 1308.38 246.382 1308.48 246.382C1308.49 246.382 1308.55 246.37 1308.57 246.365C1308.62 246.34 1308.67 246.316 1308.73 246.289C1308.78 246.268 1308.82 246.248 1308.88 246.224C1308.96 246.197 1309.02 246.171 1309.08 246.134C1309.38 245.969 1309.68 245.715 1310.01 245.334C1310.29 245.018 1310.53 244.676 1310.7 244.318C1310.97 243.764 1311.11 243.153 1311.11 242.552C1311.11 242.054 1311.01 241.565 1310.83 241.101C1310.79 240.995 1310.69 240.927 1310.59 240.927C1310.58 240.927 1310.55 240.934 1310.52 240.939C1310.36 240.378 1310.06 239.874 1309.65 239.437C1309.47 239.243 1309.25 239.1 1309.04 238.959C1309.04 238.959 1308.85 238.829 1308.77 238.778C1308.73 238.756 1308.7 238.744 1308.66 238.744C1308.59 238.744 1308.52 238.782 1308.46 238.858C1308.32 238.724 1308.16 238.601 1307.97 238.484C1307.98 238.448 1307.99 238.406 1307.99 238.363L1307.99 237.672C1307.99 236.888 1306.38 236.743 1305.64 236.716L1305.63 233.919C1320.18 231.729 1328.5 227.385 1328.5 227.385C1332.59 225.908 1337.1 221.842 1337.33 216.402C1337.37 215.332 1336.65 214.42 1335.72 214.369C1334.8 214.321 1334 215.148 1333.95 216.22C1333.79 220.011 1329.86 222.66 1327.49 223.679C1325.22 224.656 1321.97 225.003 1319.27 224.831C1310.44 222.226 1297.25 217.877 1288.76 212.972C1285.47 211.071 1282.25 208.934 1279.12 206.654V192.85H1275.68V169.698C1279.28 169.378 1282.46 168.842 1285.15 168.231L1285.16 170.702C1284.62 170.724 1284.11 170.797 1283.72 170.906C1283.11 171.081 1282.82 171.333 1282.82 171.68L1282.82 172.357C1282.82 172.403 1282.83 172.446 1282.85 172.488C1282.68 172.589 1282.53 172.703 1282.4 172.832C1282.35 172.774 1282.28 172.742 1282.21 172.742C1282.16 172.742 1282.12 172.757 1282.07 172.788L1282.03 172.822C1281.99 172.849 1281.95 172.868 1281.92 172.888C1281.88 172.907 1281.84 172.927 1281.81 172.951C1281.63 173.062 1281.48 173.198 1281.29 173.361C1280.83 173.822 1280.51 174.355 1280.33 174.954C1280.31 174.949 1280.27 174.942 1280.26 174.942C1280.16 174.942 1280.07 175.01 1280.02 175.117C1279.83 175.595 1279.74 176.092 1279.74 176.594C1279.75 177.935 1280.45 179.214 1281.68 180.096C1281.91 180.264 1282.15 180.409 1282.37 180.528C1282.49 180.589 1282.6 180.642 1282.71 180.688C1282.76 180.71 1282.81 180.722 1282.86 180.727C1282.86 180.727 1282.86 181.666 1282.86 181.673C1282.86 181.685 1282.86 181.7 1282.87 181.714C1282.89 181.845 1282.96 181.945 1283.06 181.971C1283.18 182.117 1283.56 182.369 1285.21 182.398V183.08C1285.04 183.116 1284.9 183.245 1284.83 183.429C1284.81 183.485 1284.8 183.543 1284.8 183.601C1284.62 183.618 1284.46 183.742 1284.38 183.929C1284.27 183.856 1284.15 183.82 1284.03 183.82C1283.94 183.82 1283.85 183.837 1283.76 183.873C1283.42 184.006 1283.22 184.361 1283.24 184.775C1283.26 185.19 1283.5 185.515 1283.84 185.607C1283.91 185.624 1283.97 185.634 1284.03 185.634C1284.18 185.634 1284.29 185.583 1284.39 185.522C1284.47 185.704 1284.63 185.828 1284.8 185.845C1284.81 185.908 1284.82 185.969 1284.84 186.027C1284.91 186.197 1285.04 186.32 1285.21 186.364L1285.2 186.725C1285.16 186.745 1285.12 186.781 1285.09 186.83C1285 186.873 1284.93 186.98 1284.93 187.104V187.494C1284.93 187.565 1284.95 187.63 1284.99 187.684C1285 187.701 1285 187.718 1285.01 187.732L1284.89 191.392C1284.89 191.475 1284.91 191.555 1284.96 191.61C1285.01 191.669 1285.08 191.7 1285.15 191.7H1285.94C1286.01 191.7 1286.08 191.669 1286.13 191.61C1286.18 191.555 1286.2 191.475 1286.2 191.392L1286.09 187.742C1286.09 187.722 1286.1 187.701 1286.1 187.681C1286.14 187.628 1286.16 187.562 1286.16 187.494V187.104C1286.16 186.98 1286.1 186.873 1286 186.83C1285.98 186.786 1285.94 186.752 1285.89 186.73V186.391C1286.06 186.354 1286.2 186.226 1286.26 186.046C1286.28 185.988 1286.3 185.927 1286.3 185.864C1286.48 185.85 1286.64 185.726 1286.72 185.539C1286.81 185.59 1286.92 185.632 1287.06 185.632C1287.06 185.632 1287.12 185.632 1287.12 185.632C1287.36 185.612 1287.57 185.476 1287.7 185.263C1287.88 184.986 1287.91 184.642 1287.78 184.339C1287.64 184.026 1287.36 183.825 1287.07 183.825C1286.95 183.825 1286.83 183.856 1286.73 183.919C1286.65 183.727 1286.49 183.599 1286.31 183.584C1286.3 183.521 1286.29 183.461 1286.27 183.402C1286.2 183.218 1286.06 183.092 1285.89 183.058V182.391C1286.41 182.376 1286.87 182.338 1287.23 182.277C1287.74 182.19 1287.99 182.078 1288.09 181.891C1288.16 181.838 1288.21 181.743 1288.21 181.642L1288.2 180.623C1288.2 180.523 1288.17 180.434 1288.11 180.354C1288.18 180.329 1288.25 180.295 1288.33 180.252C1288.37 180.235 1288.4 180.218 1288.42 180.201C1288.47 180.3 1288.56 180.363 1288.65 180.363C1288.67 180.363 1288.73 180.351 1288.74 180.344C1288.8 180.322 1288.85 180.298 1288.9 180.271C1288.95 180.247 1289 180.23 1289.06 180.206C1289.13 180.179 1289.2 180.15 1289.26 180.116C1289.56 179.951 1289.85 179.696 1290.19 179.313C1290.47 179 1290.7 178.658 1290.88 178.299C1291.15 177.744 1291.29 177.135 1291.29 176.533C1291.28 176.034 1291.19 175.546 1291 175.08C1290.96 174.976 1290.87 174.908 1290.77 174.908C1290.76 174.908 1290.72 174.915 1290.7 174.92C1290.53 174.36 1290.24 173.856 1289.82 173.417C1289.64 173.225 1289.43 173.079 1289.22 172.939C1289.22 172.939 1289.02 172.81 1288.94 172.759C1288.91 172.735 1288.87 172.723 1288.83 172.723C1288.76 172.723 1288.69 172.764 1288.63 172.837C1288.5 172.706 1288.33 172.582 1288.14 172.466C1288.16 172.429 1288.17 172.386 1288.17 172.342L1288.17 171.651C1288.16 170.87 1286.56 170.722 1285.82 170.697L1285.81 168.075C1292.07 166.581 1295.57 164.769 1295.57 164.769C1298.33 163.773 1301.37 161.032 1301.52 157.364C1301.55 156.641 1301.06 156.028 1300.43 155.994C1299.82 155.96 1299.27 156.518 1299.24 157.241C1299.14 159.797 1296.48 161.582 1294.89 162.271C1293.35 162.928 1291.17 163.164 1289.34 163.047C1283.39 161.291 1274.5 158.359 1268.77 155.053C1248.22 143.185 1231.76 118.308 1231.76 118.308H1228.59V114.83C1230.47 112.356 1231.86 104.769 1231.86 102.411C1231.86 99.583 1229.86 97.2885 1227.4 97.2885C1224.94 97.2885 1222.94 99.583 1222.94 102.411C1222.94 104.769 1224.33 112.356 1226.22 114.83V118.308H1223.04C1223.04 118.308 1207.72 143.541 1185.37 155.797C1179.62 158.953 1173.14 161.185 1168.06 162.635C1167.93 162.623 1167.79 162.63 1167.66 162.676C1165.81 163.307 1162.16 163.234 1159.92 162.271C1158.32 161.582 1155.67 159.797 1155.56 157.241C1155.53 156.518 1154.99 155.96 1154.37 155.994C1153.74 156.028 1153.25 156.641 1153.28 157.364C1153.44 161.032 1156.48 163.773 1159.24 164.769C1159.24 164.769 1162.85 166.29 1168.25 167.695L1168.27 170.702C1167.72 170.724 1167.21 170.797 1166.83 170.906C1166.22 171.081 1165.92 171.333 1165.93 171.68L1165.93 172.357C1165.93 172.403 1165.94 172.446 1165.95 172.488C1165.79 172.589 1165.64 172.703 1165.5 172.832C1165.46 172.774 1165.39 172.742 1165.32 172.742C1165.27 172.742 1165.22 172.757 1165.18 172.788L1165.13 172.822C1165.1 172.849 1165.06 172.868 1165.02 172.888C1164.98 172.907 1164.95 172.927 1164.91 172.951C1164.74 173.062 1164.58 173.198 1164.39 173.361C1163.93 173.822 1163.61 174.355 1163.43 174.954C1163.41 174.949 1163.37 174.942 1163.36 174.942C1163.26 174.942 1163.17 175.01 1163.13 175.117C1162.94 175.595 1162.84 176.092 1162.84 176.594C1162.85 177.935 1163.56 179.214 1164.79 180.096C1165.02 180.264 1165.25 180.409 1165.48 180.528C1165.59 180.589 1165.7 180.642 1165.81 180.688C1165.86 180.71 1165.91 180.722 1165.96 180.727C1165.96 180.727 1165.97 181.666 1165.97 181.673C1165.97 181.685 1165.97 181.7 1165.97 181.714C1165.99 181.845 1166.06 181.945 1166.16 181.971C1166.28 182.117 1166.66 182.369 1168.31 182.398L1168.31 183.08C1168.14 183.116 1168 183.245 1167.94 183.429C1167.92 183.485 1167.91 183.543 1167.9 183.601C1167.72 183.618 1167.56 183.742 1167.49 183.929C1167.37 183.856 1167.25 183.82 1167.13 183.82C1167.04 183.82 1166.95 183.837 1166.87 183.873C1166.53 184.006 1166.32 184.361 1166.34 184.775C1166.36 185.19 1166.6 185.515 1166.95 185.607C1167.01 185.624 1167.08 185.634 1167.13 185.634C1167.28 185.634 1167.4 185.583 1167.5 185.522C1167.57 185.704 1167.73 185.828 1167.91 185.845C1167.91 185.908 1167.92 185.969 1167.95 186.027C1168.01 186.197 1168.14 186.32 1168.31 186.364V186.725C1168.26 186.745 1168.22 186.781 1168.2 186.83C1168.1 186.873 1168.04 186.98 1168.04 187.104V187.494C1168.04 187.565 1168.06 187.63 1168.1 187.684C1168.1 187.701 1168.11 187.718 1168.11 187.732L1168 191.392C1167.99 191.475 1168.02 191.555 1168.07 191.61C1168.12 191.669 1168.18 191.7 1168.25 191.7H1169.05C1169.12 191.7 1169.18 191.669 1169.23 191.61C1169.28 191.555 1169.31 191.475 1169.31 191.392L1169.19 187.742C1169.2 187.722 1169.2 187.701 1169.21 187.681C1169.24 187.628 1169.26 187.562 1169.26 187.494V187.104C1169.26 186.98 1169.2 186.873 1169.11 186.83C1169.08 186.786 1169.04 186.752 1169 186.73V186.391C1169.16 186.354 1169.3 186.226 1169.37 186.046C1169.39 185.988 1169.4 185.927 1169.4 185.864C1169.58 185.85 1169.74 185.726 1169.82 185.539C1169.91 185.59 1170.02 185.632 1170.17 185.632C1170.17 185.632 1170.22 185.632 1170.23 185.632C1170.46 185.612 1170.67 185.476 1170.81 185.263C1170.98 184.986 1171.01 184.642 1170.88 184.339C1170.75 184.026 1170.47 183.825 1170.17 183.825C1170.06 183.825 1169.94 183.856 1169.83 183.919C1169.75 183.727 1169.59 183.599 1169.41 183.584C1169.41 183.521 1169.39 183.461 1169.37 183.402C1169.31 183.218 1169.17 183.092 1169 183.058V182.391C1169.51 182.376 1169.97 182.338 1170.33 182.277C1170.85 182.19 1171.1 182.078 1171.19 181.891C1171.26 181.838 1171.31 181.743 1171.31 181.642L1171.31 180.623C1171.31 180.523 1171.28 180.434 1171.21 180.354C1171.28 180.329 1171.36 180.295 1171.44 180.252C1171.47 180.235 1171.5 180.218 1171.53 180.201C1171.57 180.3 1171.66 180.363 1171.76 180.363C1171.77 180.363 1171.83 180.351 1171.85 180.344C1171.9 180.322 1171.95 180.298 1172.01 180.271C1172.05 180.247 1172.1 180.23 1172.16 180.206C1172.23 180.179 1172.3 180.15 1172.36 180.116C1172.66 179.951 1172.96 179.696 1173.29 179.313C1173.57 179 1173.81 178.658 1173.98 178.299C1174.25 177.744 1174.39 177.135 1174.39 176.533C1174.39 176.034 1174.29 175.546 1174.11 175.08C1174.06 174.976 1173.97 174.908 1173.87 174.908C1173.86 174.908 1173.82 174.915 1173.8 174.92C1173.63 174.36 1173.34 173.856 1172.93 173.417C1172.74 173.225 1172.53 173.079 1172.32 172.939C1172.32 172.939 1172.13 172.81 1172.05 172.759C1172.01 172.735 1171.97 172.723 1171.94 172.723C1171.86 172.723 1171.79 172.764 1171.74 172.837C1171.6 172.706 1171.44 172.582 1171.25 172.466C1171.27 172.429 1171.27 172.386 1171.27 172.342L1171.27 171.651C1171.27 170.87 1169.66 170.722 1168.92 170.697L1168.91 167.869C1171.78 168.587 1175.12 169.247 1178.68 169.64V192.85H1175.68V207.393C1172.28 209.802 1168.74 212.065 1165.07 214.081C1156.54 218.755 1146.92 222.068 1139.4 224.219C1139.2 224.2 1139 224.212 1138.79 224.28C1136.05 225.216 1130.63 225.107 1127.31 223.679C1124.94 222.66 1121.01 220.011 1120.85 216.22C1120.81 215.148 1120 214.321 1119.08 214.369C1118.15 214.42 1117.43 215.332 1117.48 216.402C1117.7 221.842 1122.21 225.908 1126.3 227.385C1126.3 227.385 1135.08 231.103 1147.06 233.395L1147.07 236.723C1146.53 236.745 1146.02 236.815 1145.63 236.927C1145.03 237.102 1144.73 237.354 1144.73 237.698L1144.74 238.375C1144.74 238.421 1144.75 238.467 1144.76 238.506C1144.59 238.608 1144.44 238.724 1144.31 238.853C1144.26 238.795 1144.2 238.761 1144.13 238.761C1144.08 238.761 1144.03 238.778 1143.98 238.809L1143.94 238.843C1143.9 238.87 1143.87 238.887 1143.83 238.906C1143.79 238.928 1143.75 238.947 1143.72 238.969C1143.55 239.083 1143.39 239.217 1143.2 239.382C1142.74 239.84 1142.42 240.374 1142.24 240.973C1142.22 240.968 1142.18 240.963 1142.17 240.963C1142.07 240.963 1141.98 241.028 1141.94 241.135C1141.75 241.613 1141.65 242.11 1141.65 242.612C1141.66 243.954 1142.36 245.232 1143.59 246.115C1143.83 246.282 1144.06 246.428 1144.28 246.549C1144.4 246.607 1144.51 246.661 1144.62 246.709C1144.67 246.728 1144.72 246.741 1144.77 246.745C1144.77 246.745 1144.77 247.687 1144.77 247.691C1144.77 247.706 1144.78 247.721 1144.78 247.733C1144.8 247.864 1144.87 247.963 1144.97 247.992C1145.09 248.138 1145.47 248.39 1147.12 248.417V249.098C1146.95 249.135 1146.81 249.266 1146.75 249.448C1146.73 249.503 1146.71 249.562 1146.71 249.622C1146.53 249.639 1146.37 249.76 1146.29 249.947C1146.18 249.874 1146.06 249.838 1145.94 249.838C1145.85 249.838 1145.76 249.857 1145.67 249.891C1145.34 250.027 1145.13 250.381 1145.15 250.796C1145.17 251.208 1145.41 251.534 1145.76 251.626C1145.82 251.643 1145.88 251.652 1145.94 251.652C1146.09 251.652 1146.21 251.604 1146.3 251.541C1146.38 251.725 1146.54 251.846 1146.71 251.863C1146.72 251.926 1146.73 251.987 1146.75 252.045C1146.82 252.218 1146.95 252.339 1147.12 252.382V252.744C1147.07 252.766 1147.03 252.802 1147 252.848C1146.91 252.892 1146.85 252.999 1146.85 253.122V253.513C1146.85 253.583 1146.87 253.651 1146.9 253.702C1146.91 253.719 1146.91 253.736 1146.92 253.753L1146.8 257.413C1146.8 257.493 1146.83 257.573 1146.87 257.629C1146.92 257.687 1146.99 257.721 1147.06 257.721H1147.86C1147.93 257.721 1147.99 257.687 1148.04 257.631C1148.09 257.573 1148.12 257.493 1148.12 257.413L1148 253.763C1148.01 253.741 1148.01 253.721 1148.02 253.7C1148.05 253.646 1148.07 253.583 1148.07 253.513V253.122C1148.07 252.999 1148.01 252.892 1147.91 252.848C1147.89 252.804 1147.85 252.773 1147.81 252.751V252.409C1147.97 252.373 1148.11 252.247 1148.17 252.065C1148.2 252.006 1148.21 251.946 1148.21 251.885C1148.39 251.868 1148.55 251.745 1148.63 251.558C1148.72 251.611 1148.83 251.652 1148.97 251.652C1148.98 251.652 1149.03 251.65 1149.04 251.65C1149.27 251.631 1149.48 251.495 1149.61 251.281C1149.79 251.005 1149.82 250.66 1149.69 250.357C1149.55 250.044 1149.28 249.843 1148.98 249.843C1148.86 249.843 1148.75 249.877 1148.64 249.937C1148.56 249.746 1148.4 249.62 1148.22 249.605C1148.21 249.542 1148.2 249.479 1148.18 249.421C1148.12 249.239 1147.97 249.11 1147.81 249.079V248.409C1148.32 248.397 1148.78 248.356 1149.14 248.295C1149.65 248.208 1149.9 248.099 1150 247.91C1150.07 247.856 1150.12 247.764 1150.12 247.662C1150.12 247.66 1150.11 246.641 1150.11 246.641C1150.11 246.542 1150.08 246.452 1150.02 246.372C1150.09 246.348 1150.16 246.314 1150.25 246.27C1150.28 246.256 1150.31 246.239 1150.34 246.222C1150.38 246.321 1150.47 246.382 1150.56 246.382C1150.58 246.382 1150.64 246.37 1150.66 246.365C1150.71 246.34 1150.76 246.316 1150.82 246.289C1150.86 246.268 1150.91 246.248 1150.97 246.224C1151.04 246.197 1151.11 246.171 1151.17 246.134C1151.47 245.969 1151.76 245.715 1152.1 245.334C1152.38 245.018 1152.61 244.676 1152.79 244.318C1153.06 243.764 1153.2 243.153 1153.2 242.552C1153.2 242.054 1153.1 241.565 1152.91 241.101C1152.87 240.995 1152.78 240.927 1152.68 240.927C1152.67 240.927 1152.63 240.934 1152.61 240.939C1152.44 240.378 1152.15 239.874 1151.73 239.437C1151.55 239.243 1151.34 239.1 1151.13 238.959C1151.13 238.959 1150.93 238.829 1150.86 238.778C1150.82 238.756 1150.78 238.744 1150.74 238.744C1150.67 238.744 1150.6 238.782 1150.55 238.858C1150.41 238.724 1150.25 238.601 1150.06 238.484C1150.07 238.448 1150.08 238.406 1150.08 238.363L1150.08 237.672C1150.08 236.888 1148.47 236.743 1147.73 236.716L1147.72 233.512C1151.62 234.235 1155.83 234.795 1160.18 235.03V253.879H1156.9V266.397C1154.25 268.105 1151.55 269.73 1148.79 271.246C1138.04 277.145 1125.9 281.322 1116.41 284.033C1116.16 284.011 1115.9 284.026 1115.65 284.113C1112.19 285.292 1105.36 285.154 1101.17 283.352C1098.18 282.066 1093.22 278.729 1093.02 273.945C1092.97 272.592 1091.95 271.549 1090.79 271.612C1089.62 271.678 1088.71 272.825 1088.77 274.176C1089.05 281.038 1094.73 286.165 1099.9 288.028C1099.9 288.028 1112.98 293.568 1130.1 296.319L1130.11 299.52C1129.57 299.542 1129.06 299.615 1128.67 299.724C1128.06 299.899 1127.77 300.151 1127.77 300.498L1127.78 301.175C1127.78 301.221 1127.78 301.264 1127.8 301.303C1127.63 301.407 1127.48 301.521 1127.35 301.65C1127.3 301.592 1127.24 301.558 1127.16 301.558C1127.11 301.558 1127.06 301.575 1127.02 301.606L1126.98 301.64C1126.94 301.667 1126.91 301.684 1126.87 301.703C1126.83 301.725 1126.79 301.745 1126.76 301.769C1126.58 301.88 1126.43 302.014 1126.24 302.179C1125.78 302.637 1125.46 303.173 1125.28 303.772C1125.26 303.765 1125.22 303.76 1125.21 303.76C1125.11 303.76 1125.02 303.828 1124.98 303.932C1124.78 304.413 1124.69 304.908 1124.69 305.41C1124.7 306.753 1125.4 308.029 1126.63 308.915C1126.86 309.082 1127.1 309.227 1127.32 309.346C1127.44 309.404 1127.55 309.46 1127.66 309.506C1127.71 309.526 1127.76 309.538 1127.81 309.543C1127.81 309.543 1127.81 310.484 1127.81 310.489C1127.81 310.503 1127.81 310.518 1127.82 310.532C1127.83 310.661 1127.91 310.763 1128.01 310.789C1128.13 310.935 1128.51 311.187 1130.16 311.214V311.896C1129.99 311.932 1129.85 312.063 1129.79 312.247C1129.77 312.301 1129.75 312.361 1129.75 312.419C1129.57 312.436 1129.41 312.56 1129.33 312.744C1129.22 312.672 1129.1 312.638 1128.98 312.638C1128.89 312.638 1128.8 312.655 1128.71 312.691C1128.37 312.825 1128.17 313.179 1128.19 313.593C1128.21 314.006 1128.45 314.333 1128.79 314.423C1128.86 314.442 1128.92 314.45 1128.98 314.45C1129.13 314.45 1129.25 314.401 1129.34 314.338C1129.42 314.522 1129.58 314.644 1129.75 314.663C1129.76 314.724 1129.77 314.784 1129.79 314.843C1129.86 315.015 1129.99 315.138 1130.16 315.18L1130.16 315.541C1130.11 315.563 1130.07 315.599 1130.04 315.645C1129.95 315.692 1129.88 315.796 1129.88 315.919V316.31C1129.88 316.383 1129.9 316.448 1129.94 316.502C1129.95 316.519 1129.95 316.533 1129.96 316.55L1129.84 320.21C1129.84 320.293 1129.87 320.37 1129.91 320.429C1129.96 320.484 1130.03 320.518 1130.1 320.518H1130.9C1130.97 320.518 1131.03 320.484 1131.08 320.429C1131.13 320.37 1131.16 320.293 1131.15 320.21L1131.04 316.56C1131.04 316.54 1131.05 316.519 1131.05 316.497C1131.09 316.446 1131.11 316.38 1131.11 316.31V315.919C1131.11 315.796 1131.05 315.692 1130.95 315.645C1130.93 315.604 1130.89 315.57 1130.85 315.548V315.206C1131.01 315.17 1131.15 315.044 1131.21 314.862C1131.23 314.806 1131.25 314.743 1131.25 314.682C1131.43 314.668 1131.59 314.544 1131.67 314.355C1131.76 314.408 1131.87 314.45 1132.01 314.45C1132.02 314.45 1132.07 314.447 1132.07 314.447C1132.31 314.428 1132.52 314.294 1132.65 314.078C1132.83 313.804 1132.86 313.458 1132.73 313.157C1132.59 312.844 1132.32 312.643 1132.02 312.643C1131.9 312.643 1131.79 312.674 1131.68 312.735C1131.6 312.546 1131.44 312.417 1131.26 312.402C1131.25 312.339 1131.24 312.279 1131.22 312.218C1131.16 312.036 1131.01 311.908 1130.85 311.876V311.209C1131.36 311.195 1131.82 311.156 1132.18 311.093C1132.69 311.005 1132.94 310.896 1133.04 310.709C1133.11 310.654 1133.16 310.561 1133.16 310.46C1133.16 310.457 1133.15 309.438 1133.15 309.438C1133.15 309.339 1133.12 309.252 1133.06 309.172C1133.13 309.147 1133.2 309.113 1133.29 309.067C1133.32 309.053 1133.35 309.036 1133.37 309.019C1133.42 309.118 1133.51 309.179 1133.6 309.179C1133.62 309.179 1133.68 309.167 1133.69 309.162C1133.75 309.14 1133.8 309.113 1133.86 309.087C1133.9 309.065 1133.95 309.048 1134.01 309.024C1134.08 308.995 1134.15 308.968 1134.21 308.932C1134.51 308.769 1134.8 308.514 1135.14 308.131C1135.42 307.816 1135.65 307.474 1135.83 307.115C1136.1 306.562 1136.24 305.951 1136.24 305.351C1136.24 304.852 1136.14 304.362 1135.96 303.898C1135.91 303.794 1135.82 303.726 1135.72 303.726C1135.71 303.726 1135.67 303.734 1135.65 303.738C1135.48 303.176 1135.19 302.671 1134.77 302.235C1134.59 302.043 1134.38 301.897 1134.17 301.757C1134.17 301.757 1133.97 301.626 1133.89 301.575C1133.86 301.553 1133.82 301.541 1133.78 301.541C1133.71 301.541 1133.64 301.582 1133.58 301.655C1133.45 301.521 1133.29 301.4 1133.1 301.284C1133.11 301.245 1133.12 301.204 1133.12 301.16L1133.12 300.469C1133.11 299.685 1131.51 299.54 1130.77 299.513L1130.76 296.418C1134.18 296.949 1137.75 297.369 1141.41 297.607V325.711H1135.31V343.634H1133.22V341.642C1133.22 341.106 1132.84 340.67 1132.37 340.67H1132.15C1132.1 340.097 1132.04 339.435 1131.99 338.831C1132.55 338.632 1132.96 338.04 1132.96 337.33C1132.96 336.457 1132.35 335.751 1131.59 335.751C1130.83 335.751 1130.22 336.457 1130.22 337.33C1130.22 338.038 1130.63 338.632 1131.19 338.831C1131.13 339.44 1131.07 340.1 1131.02 340.67H1130.81C1130.34 340.67 1129.96 341.106 1129.96 341.642V343.634H1109.89V341.642C1109.89 341.106 1109.51 340.67 1109.04 340.67H1108.82C1108.77 340.097 1108.71 339.435 1108.66 338.831C1109.22 338.632 1109.63 338.04 1109.63 337.33C1109.63 336.457 1109.02 335.751 1108.26 335.751C1107.5 335.751 1106.89 336.457 1106.89 337.33C1106.89 338.038 1107.29 338.632 1107.86 338.831C1107.8 339.44 1107.74 340.1 1107.69 340.67H1107.47C1107.01 340.67 1106.63 341.106 1106.63 341.642V343.634H1086.56V341.642C1086.56 341.106 1086.18 340.67 1085.71 340.67H1085.49C1085.44 340.097 1085.38 339.435 1085.33 338.831C1085.89 338.632 1086.3 338.04 1086.3 337.33C1086.3 336.457 1085.68 335.751 1084.93 335.751C1084.17 335.751 1083.55 336.457 1083.55 337.33C1083.55 338.038 1083.96 338.632 1084.52 338.831C1084.47 339.44 1084.41 340.1 1084.36 340.67H1084.14C1083.67 340.67 1083.29 341.106 1083.29 341.642V343.634H1063.23V341.642C1063.23 341.106 1062.85 340.67 1062.38 340.67H1062.16C1062.11 340.097 1062.05 339.435 1062 338.831C1062.56 338.632 1062.97 338.04 1062.97 337.33C1062.97 336.457 1062.35 335.751 1061.6 335.751C1060.84 335.751 1060.22 336.457 1060.22 337.33C1060.22 338.038 1060.63 338.632 1061.19 338.831C1061.14 339.44 1061.08 340.1 1061.03 340.67H1060.81C1060.34 340.67 1059.96 341.106 1059.96 341.642V343.634H1054.77C1053.14 341.266 1051.15 339.076 1049.63 336.651C1047.83 333.791 1047.66 331.048 1044.72 329.107C1042.77 327.824 1040.5 328.021 1038.61 326.767C1034.41 323.977 1033.43 317.239 1030.58 313.125C1027.47 308.636 1022.32 306.118 1019.97 300.888C1019.49 299.821 1018.9 298.885 1018.52 297.638C1017.98 295.819 1017.76 293.985 1017.16 292.164C1016.63 290.519 1014.97 289.498 1014.64 287.88C1014.28 286.105 1015.52 284.552 1016.57 283.539C1018.79 281.385 1021.94 280.383 1024.65 279.51C1026.72 278.843 1028.82 278.343 1030.94 277.945C1031.79 277.785 1032.79 277.421 1033.64 277.385C1036.53 277.266 1038.21 281.392 1041.23 281.132C1042.17 281.052 1042.92 280.009 1042.71 278.869C1042.62 278.377 1041.89 278.028 1041.97 277.433C1042.05 276.793 1042.88 276.616 1043.29 276.437C1044.44 275.937 1045.39 275.672 1046.62 275.658C1049.85 275.617 1053 275.231 1056.12 274.171C1058.89 273.225 1061.67 274.169 1064.51 273.909C1069.16 273.485 1073.24 271.144 1077.12 268.204C1078.19 267.394 1079.35 266.642 1080.47 265.805C1087.01 267.418 1094.87 266.705 1095.53 260.481C1102.75 267.273 1121.43 264.622 1118.09 250.478C1123.06 251.512 1129.69 245.118 1130.65 239.263C1131.99 231.183 1127.28 230.701 1122.31 230.725C1121.23 230.734 1120.14 230.756 1119.09 230.742C1120.32 214.369 1104.33 214.585 1096.08 221.651C1090.98 211.519 1075.32 206.079 1069.99 220.186C1059.96 216.188 1054.99 209.373 1045.43 218.071C1043.54 213.705 1034.98 216.157 1032.59 218.134C1030.79 219.625 1030.75 223.126 1028.5 223.797C1024.76 224.918 1020.28 219.713 1016.39 221.425C1013.22 222.827 1010.94 234.322 1010.79 234.361C1009.74 234.659 1006.65 236.068 1003.81 237.822C999.181 240.674 995.179 244.429 1001.56 245.751C994.267 253.064 996.693 265.015 1007.32 260.345C1004.68 264.117 1007.32 266.392 1010.5 266.834C1015.29 267.498 1019.82 260.474 1022.3 256.372C1021.44 261.192 1023.97 263.879 1027.23 264.585C1026.56 266.945 1025.67 269.245 1024.49 271.144C1022.79 273.89 1019.71 276.628 1016.83 277.111C1014.93 277.426 1013.02 278.202 1011.14 278.683C1007.2 279.689 1002.84 281.006 998.784 280.434C995.947 280.031 992.474 278.583 991.904 274.787C991.227 270.264 988.449 265.767 986.029 262.296C984.231 259.72 982.506 257.073 980.896 254.323C980.647 253.896 980.406 253.484 980.174 253.071C980.763 253.156 981.377 253.083 981.964 252.785C983.149 252.174 983.98 251.053 984.603 249.765C986.031 249.676 987.552 249.428 988.679 248.875C989.704 248.451 990.689 247.929 991.628 247.298C992.613 246.471 992.847 245.055 993.771 244.22C995.428 242.717 996.875 240.497 998.362 238.831C999.261 237.822 999.516 235.644 999.006 234.339C997.94 231.646 997.109 230.349 994.658 229.507C994.307 229.388 993.934 229.347 993.544 229.371C992.044 229.451 990.36 230.429 989.208 231.19C989.181 231.205 989.153 231.222 989.12 231.246C987.826 231.462 986.573 231.974 985.375 232.656C984.577 231.013 983.364 229.907 981.613 229.291C979.261 228.459 977.358 230.756 976.117 233.41C975.67 233.289 975.214 233.192 974.759 233.112C973.976 232.983 973.191 232.917 972.421 232.896C972.291 232.292 972.168 231.688 972.05 231.081C975.223 229.694 973.691 223.504 971.366 218.842C971.879 217.188 972.681 215.655 973.455 213.908C974.9 210.651 976.736 207.478 979.227 205.247C980.311 204.277 981.426 203.399 982.573 202.572C985.168 203.83 986.955 205.611 991.748 205.024C998.698 204.182 1006.24 202.397 1011.68 196.862C1017.86 203.42 1032.71 197.694 1036.55 190.126C1043.78 194.169 1057.54 178.086 1052.63 168.17C1049.77 162.405 1042.68 161.691 1037.89 163.933C1037.91 161.146 1036.81 158.696 1035 156.654C1028.28 149.052 1011.93 147.218 1008.99 155.7C1007.9 153.352 1005.15 152.336 1001.98 152.227C1006.15 147.15 1008.5 140.997 1009.13 134.098C1009.4 133.786 1009.64 133.465 1009.82 133.136C1014.14 135.282 1022.44 126.49 1019.55 121.146C1018.65 119.487 1017.02 118.624 1015.25 118.359C1013.71 118.134 1012.08 118.366 1010.74 118.951C1010.88 111.832 995.763 108.827 993.485 114.675C991.776 111.318 983.042 113.113 981.071 115.676C978.263 109.972 963.906 107.891 959.833 112.977C955.717 106.85 949.966 110.998 944.98 111.944C943.084 112.295 940.683 113.152 938.411 114.418C935.113 116.251 932.084 118.944 931.24 122.179C930.134 126.473 932.822 125.711 936.098 125.342C935.288 127.28 935.75 128.314 936.816 129.973C939.47 134.13 943.069 130.286 945.824 132.015C947.179 132.871 946.212 134.802 947.425 136.332C949.866 139.401 956.421 139.248 959.436 137.518C958.291 141.057 960.664 141.95 963.944 141.829C964.13 143.519 964.421 145.174 964.824 146.745C959.712 146.976 955.139 148.579 952.748 151.887C945.79 140.49 936.24 148.05 927.909 149.685C922.902 150.67 915.799 153.961 910.784 158.88C908.037 161.577 905.919 164.767 905.109 168.33C903.312 176.245 907.797 174.882 913.265 174.265C911.938 177.831 912.723 179.745 914.525 182.837C919.022 190.558 924.974 183.533 929.605 186.793C931.877 188.394 930.288 191.943 932.339 194.795C934.78 198.176 939.609 199.491 944.185 199.363C945.658 201.909 947.594 204.102 949.472 206.237C952.177 209.31 955.394 211.733 958.681 213.802C959.031 214.022 959.39 214.243 959.753 214.464C958.153 215.786 956.603 217.464 954.812 218.583C953.613 208.298 942.025 202.836 936.763 212.984C934.598 200.401 918.7 199.489 911.624 206.433C910.618 190.749 882.816 190.206 883.628 206.448C880.149 197.847 875.485 198.991 871.288 205.448C867.394 199.697 858.366 196.549 855.653 204.478C855.084 198.383 838.369 199.263 837.698 207.818C827.959 205.63 824.16 211.071 821.894 221.251C821.352 223.676 820.681 226.143 820.364 228.234C819.736 232.457 820.579 235.122 827.008 232.68C823.421 241.562 831.706 247.754 837.147 239.791C839.4 251.832 846.752 243.461 851.799 245.719C855.09 247.184 854.828 253.729 860.888 252.688C864.601 252.055 865.98 249.467 866.978 245.511C868.778 252.618 873.231 250.585 877.352 247.83C877.712 248.451 878.079 249.064 878.478 249.642C879.369 250.932 880.417 252.351 881.449 253.481C882.603 254.74 884.409 255.055 885.826 255.732C888.436 256.979 890.974 258.075 893.643 259.045C895.276 259.637 896.698 260.865 898.2 261.82C899.721 262.79 901.828 262.897 903.51 263.242C907.058 263.969 910.482 264.522 914.079 264.479C915.381 264.462 916.681 264.323 917.982 264.362C918.56 264.379 919.347 264.316 919.887 264.58C920.33 264.799 920.561 265.318 921.111 265.437C922.094 265.645 923.212 265.716 924.373 265.648C925.328 265.592 926.622 266.274 927.582 266.482C928.769 266.737 929.966 266.943 931.164 267.115C932.634 267.329 934.126 267.2 935.59 267.542C936.605 267.777 936.763 267.782 936.71 268.874C936.668 269.774 936.489 270.933 937.636 271.018C940.052 271.193 942.546 271.474 944.932 270.836C946.647 270.378 948.153 269.036 949.894 268.733C951.499 268.454 953.4 269.179 954.999 269.417C958.63 269.958 962.362 270.96 965.733 272.691C967.293 273.494 969.366 274.273 970.236 276.16C971.398 278.683 969.065 281.021 970.177 283.747C970.852 285.406 972.522 286.781 973.518 288.23C974.601 289.804 976.636 290.218 976.487 292.496C976.453 293.015 975.501 293.5 975.172 293.774C974.183 294.599 973.134 295.693 972.812 297.153C971.968 300.961 973.993 303.476 972.189 307.272C970.902 309.982 968.229 311.483 968.421 314.969C968.744 320.819 973.092 322.347 968.767 327.271C968.204 327.914 967.704 328.486 967.236 329.039C963.075 328.935 958.963 327.341 954.696 324.819C954.696 322.265 954.696 319.708 954.696 317.154C954.696 316.73 954.501 316.16 954.261 315.886C954.223 315.842 954.185 315.801 954.147 315.757C954.122 315.279 954.092 314.724 954.063 314.209C954.352 314.379 954.563 314.154 954.563 313.593C954.563 312.905 954.248 311.985 953.856 311.541C953.463 311.1 953.145 311.304 953.147 311.993C953.145 312.553 953.358 313.259 953.649 313.741C953.622 314.188 953.59 314.675 953.565 315.1C953.527 315.056 953.489 315.012 953.451 314.971C953.208 314.699 953.012 314.826 953.012 315.25C953.012 315.774 953.012 316.298 953.012 316.822C953.012 316.839 953.012 316.853 953.012 316.868C949.516 312.98 945.947 309.341 942.293 306.021C942.293 305.497 942.293 304.973 942.293 304.449C942.293 304.025 942.088 303.493 941.833 303.265C941.793 303.229 941.753 303.193 941.715 303.156C941.685 302.678 941.653 302.128 941.624 301.626C941.93 301.742 942.153 301.475 942.151 300.915C942.151 300.226 941.82 299.365 941.406 298.996C940.995 298.63 940.66 298.895 940.66 299.581C940.66 300.141 940.883 300.806 941.187 301.235C941.158 301.691 941.126 302.184 941.098 302.608C941.06 302.574 941.02 302.538 940.98 302.504C940.725 302.278 940.518 302.441 940.518 302.865C940.518 303.404 940.518 303.945 940.518 304.483C936.869 301.279 933.158 298.315 929.379 295.671C929.379 295.147 929.379 294.623 929.379 294.099C929.379 293.675 929.164 293.18 928.9 292.996C928.858 292.969 928.816 292.94 928.776 292.911C928.746 292.438 928.715 291.892 928.683 291.395C928.999 291.458 929.231 291.15 929.231 290.59C929.233 289.901 928.885 289.1 928.457 288.807C928.027 288.511 927.679 288.836 927.679 289.525C927.679 290.085 927.911 290.708 928.229 291.082C928.198 291.543 928.166 292.04 928.136 292.472C928.094 292.443 928.054 292.416 928.012 292.387C927.748 292.207 927.531 292.406 927.531 292.833C927.531 293.372 927.531 293.913 927.531 294.451C923.795 291.938 920.01 289.653 916.177 287.684C916.177 287.16 916.177 286.636 916.177 286.112C916.177 285.688 915.955 285.229 915.683 285.091C915.641 285.069 915.596 285.047 915.554 285.025C915.525 284.557 915.491 284.019 915.459 283.524C915.786 283.534 916.025 283.187 916.025 282.626C916.025 281.938 915.668 281.195 915.225 280.975C914.784 280.754 914.425 281.135 914.425 281.824C914.425 282.384 914.664 282.969 914.991 283.289C914.959 283.754 914.925 284.259 914.896 284.695C914.854 284.674 914.812 284.652 914.769 284.632C914.495 284.497 914.274 284.732 914.274 285.156C914.274 285.695 914.274 286.233 914.274 286.769C910.366 284.86 906.423 283.192 902.444 281.843C902.444 281.319 902.444 280.795 902.444 280.271C902.444 279.844 902.219 279.425 901.94 279.33C901.896 279.316 901.852 279.301 901.809 279.287C901.778 278.826 901.744 278.292 901.71 277.805C902.046 277.758 902.29 277.373 902.29 276.81C902.29 276.121 901.925 275.44 901.474 275.292C901.023 275.144 900.655 275.588 900.655 276.276C900.655 276.834 900.9 277.38 901.234 277.647C901.2 278.117 901.166 278.627 901.136 279.068C901.092 279.054 901.05 279.039 901.006 279.025C900.727 278.935 900.501 279.209 900.501 279.633C900.501 280.172 900.501 280.708 900.501 281.246C896.514 279.988 892.501 278.969 888.472 278.27C888.472 277.746 888.472 277.222 888.472 276.698C888.472 276.274 888.244 275.888 887.961 275.842C887.917 275.835 887.873 275.828 887.828 275.82C887.799 275.362 887.763 274.836 887.729 274.353C888.069 274.251 888.316 273.824 888.316 273.264C888.316 272.575 887.944 271.954 887.489 271.879C887.031 271.806 886.662 272.308 886.662 272.997C886.662 273.557 886.909 274.062 887.246 274.273C887.212 274.748 887.179 275.265 887.149 275.709C887.105 275.702 887.06 275.697 887.016 275.689C886.733 275.646 886.506 275.956 886.506 276.381C886.506 276.917 886.506 277.453 886.506 277.991C882.472 277.382 878.425 277.016 874.377 276.97C874.377 276.444 874.377 275.92 874.377 275.396C874.377 274.971 874.147 274.625 873.864 274.622C873.82 274.622 873.776 274.622 873.731 274.622C873.7 274.169 873.664 273.647 873.632 273.169C873.972 273.014 874.219 272.548 874.221 271.988C874.221 271.299 873.847 270.737 873.39 270.737C872.93 270.737 872.558 271.299 872.558 271.986C872.558 272.546 872.807 273.012 873.145 273.169C873.113 273.652 873.077 274.171 873.048 274.622C873.003 274.622 872.959 274.622 872.915 274.622C872.63 274.625 872.402 274.971 872.402 275.396C872.402 275.932 872.402 276.47 872.402 277.007C868.354 277.048 864.307 277.334 860.274 277.938C860.274 277.414 860.274 276.888 860.274 276.364C860.274 275.939 860.044 275.629 859.763 275.672C859.719 275.68 859.672 275.687 859.628 275.694C859.598 275.246 859.563 274.731 859.531 274.258C859.868 274.047 860.117 273.543 860.117 272.98C860.115 272.294 859.746 271.789 859.288 271.864C858.833 271.937 858.461 272.558 858.461 273.247C858.461 273.807 858.708 274.232 859.046 274.336C859.012 274.821 858.978 275.347 858.949 275.803C858.904 275.811 858.86 275.818 858.816 275.825C858.535 275.871 858.305 276.257 858.305 276.682C858.305 277.218 858.305 277.756 858.305 278.292C854.278 278.986 850.261 279.922 846.276 281.174C846.276 280.65 846.276 280.126 846.276 279.602C846.276 279.177 846.05 278.903 845.771 278.993C845.727 279.008 845.683 279.022 845.639 279.034C845.609 278.593 845.575 278.083 845.542 277.615C845.877 277.351 846.122 276.805 846.122 276.242C846.122 275.556 845.757 275.112 845.303 275.26C844.852 275.406 844.487 276.09 844.487 276.776C844.487 277.336 844.731 277.722 845.065 277.771C845.031 278.263 844.997 278.794 844.968 279.255C844.923 279.27 844.881 279.284 844.837 279.299C844.558 279.391 844.333 279.81 844.333 280.237C844.333 280.773 844.333 281.312 844.333 281.848C840.358 283.192 836.406 284.778 832.501 286.682C832.501 286.158 832.501 285.634 832.501 285.11C832.501 284.686 832.28 284.448 832.008 284.584C831.963 284.603 831.921 284.625 831.877 284.647C831.847 284.21 831.814 283.703 831.782 283.243C832.109 282.922 832.35 282.338 832.35 281.775C832.35 281.089 831.991 280.705 831.55 280.926C831.107 281.147 830.75 281.887 830.75 282.576C830.75 283.136 830.989 283.483 831.314 283.475C831.282 283.973 831.248 284.511 831.219 284.977C831.176 284.999 831.134 285.018 831.092 285.04C830.82 285.178 830.598 285.637 830.598 286.061C830.598 286.6 830.598 287.138 830.598 287.674C826.708 289.67 822.856 291.904 819.065 294.458C819.065 293.934 819.065 293.41 819.065 292.887C819.065 292.462 818.85 292.263 818.584 292.443C818.544 292.472 818.501 292.498 818.459 292.528C818.43 292.096 818.396 291.596 818.366 291.14C818.685 290.767 818.917 290.138 818.917 289.578C818.917 288.889 818.569 288.567 818.141 288.863C817.71 289.156 817.364 289.957 817.364 290.645C817.364 291.206 817.596 291.511 817.913 291.451C817.881 291.953 817.85 292.496 817.82 292.967C817.78 292.996 817.738 293.025 817.698 293.051C817.432 293.236 817.219 293.731 817.219 294.155C817.219 294.694 817.219 295.232 817.219 295.771C813.447 298.417 809.725 301.303 806.082 304.505C806.082 303.981 806.082 303.457 806.082 302.933C806.082 302.509 805.875 302.346 805.62 302.572C805.579 302.608 805.539 302.642 805.499 302.678C805.472 302.252 805.44 301.757 805.411 301.306C805.717 300.879 805.94 300.212 805.94 299.649C805.94 298.963 805.605 298.698 805.193 299.067C804.78 299.436 804.449 300.297 804.449 300.985C804.449 301.546 804.67 301.81 804.974 301.696C804.944 302.203 804.913 302.754 804.885 303.227C804.845 303.263 804.807 303.299 804.767 303.333C804.512 303.564 804.307 304.095 804.307 304.519C804.307 305.06 804.307 305.599 804.307 306.14C800.687 309.434 797.13 312.97 793.666 316.822C793.666 316.298 793.666 315.774 793.666 315.25C793.666 314.826 793.47 314.699 793.227 314.971C793.189 315.012 793.151 315.056 793.113 315.1C793.086 314.675 793.056 314.188 793.029 313.741C793.318 313.259 793.531 312.553 793.531 311.993C793.531 311.304 793.212 311.1 792.822 311.541C792.43 311.985 792.115 312.905 792.115 313.593C792.115 314.154 792.324 314.379 792.613 314.209C792.586 314.724 792.556 315.279 792.531 315.757C792.493 315.801 792.455 315.842 792.417 315.886C792.176 316.16 791.98 316.73 791.98 317.154C791.98 318.74 791.98 320.327 791.98 321.913L773.533 321.94L773.527 316.325L773.17 316.327L773.13 279.793L781.527 279.781L781.514 268.219C782.466 267.916 783.284 267.627 783.942 267.358C797.624 261.796 811.535 252.208 817.225 233.728C805.672 252.322 779.202 248.848 761.17 245.545L761.164 239.833H760.904L760.864 203.299L767.586 203.289L767.569 187.24C777.2 181.564 787.145 177.186 791.402 163.348C781.242 179.706 757.271 175.653 742.225 172.81L742.181 130.742L751.219 130.729L751.204 117.168C758.147 113.183 764.491 107.762 767.485 98.0283C758.609 112.317 736.877 107.599 724.854 105.334C710.151 102.576 677.044 90.9845 662.58 55.3509C661.911 55.3606 661.29 55.3654 660.679 55.3654L660.677 53.2358C663.504 52.5494 665.624 49.726 665.62 46.3424C665.615 42.9612 663.491 40.1427 660.662 39.4636L660.66 36.7615C662.563 36.1163 663.957 34.1492 663.953 31.7988C663.951 29.4461 662.552 27.4862 660.649 26.8459L660.62 0L657.978 0.00242554L658.008 26.8483C656.105 27.4935 654.71 29.4606 654.712 31.811C654.717 34.1638 656.113 36.1236 658.018 36.7639L658.023 39.4684C655.193 40.1548 653.075 42.9782 653.08 46.3618C653.082 49.743 655.208 52.5615 658.037 53.2382L658.039 55.3678C657.44 55.3678 656.818 55.3654 656.143 55.3606C640.385 91.0354 606.835 102.865 592.312 105.523C581.548 107.507 560.236 112.598 551.328 98.3363C554.759 109.399 560.341 114.966 567.651 119.033L567.666 130.989L577.099 130.977L577.143 172.582C563.869 175.049 538.303 180.941 527.552 163.724C532.204 178.728 540.831 184.479 551.438 189.187L551.455 203.598L558.556 203.588L558.601 245.246C542.202 248.363 514.071 253.697 501.881 234.176C507.611 252.64 519.938 262.575 533.238 267.971C533.491 268.073 533.759 268.175 534.039 268.279L534.052 280.133L542.436 280.121L542.482 322.267L521.383 322.299L521.421 356.397H490.626V217.093C501.78 216.05 508.28 212.832 508.28 212.832C510.82 211.958 513.617 209.555 513.757 206.341C513.784 205.708 513.339 205.169 512.759 205.138C512.191 205.109 511.689 205.599 511.662 206.232C511.565 208.473 509.124 210.037 507.653 210.641C506.242 211.219 504.231 211.422 502.552 211.323C497.071 209.783 488.888 207.212 483.618 204.313C464.704 193.91 449.556 172.102 449.556 172.102H446.632V169.051C448.369 166.882 449.643 160.231 449.643 158.165C449.643 155.683 447.807 153.673 445.542 153.673C443.278 153.673 441.44 155.683 441.44 158.165C441.44 160.231 442.717 166.88 444.451 169.051V172.102H441.529C441.529 172.102 427.432 194.22 406.86 204.966C401.569 207.731 395.599 209.688 390.93 210.959C390.805 210.949 390.679 210.957 390.554 210.995C388.854 211.548 385.493 211.485 383.432 210.641C381.959 210.037 379.518 208.473 379.421 206.232C379.394 205.599 378.894 205.109 378.324 205.138C377.746 205.169 377.299 205.708 377.326 206.341C377.466 209.555 380.263 211.958 382.803 212.832C382.803 212.832 390.708 216.011 400.459 217.076V356.397H386.179V343.025H384.459V327.438C384.459 326.902 384.082 326.466 383.613 326.466H383.394C383.343 325.896 383.286 325.236 383.231 324.627C383.79 324.426 384.2 323.834 384.2 323.126C384.2 322.253 383.586 321.547 382.828 321.547C382.071 321.547 381.455 322.253 381.455 323.126C381.455 323.836 381.866 324.428 382.428 324.627C382.375 325.231 382.316 325.893 382.265 326.466H382.044C381.575 326.466 381.196 326.902 381.196 327.438V329.43H360.987V327.438C360.987 326.902 360.607 326.466 360.139 326.466H359.919C359.866 325.893 359.809 325.231 359.755 324.627C360.316 324.428 360.727 323.836 360.727 323.126C360.727 322.253 360.113 321.547 359.354 321.547C358.596 321.547 357.982 322.253 357.982 323.126C357.982 323.834 358.392 324.426 358.953 324.627C358.898 325.236 358.839 325.896 358.788 326.466H358.571C358.103 326.466 357.723 326.902 357.723 327.438V329.43H337.655V327.438C337.655 326.902 337.276 326.466 336.807 326.466H336.588C336.535 325.893 336.478 325.231 336.423 324.627C336.985 324.428 337.396 323.836 337.396 323.126C337.396 322.253 336.782 321.547 336.023 321.547C335.66 321.547 335.333 321.717 335.088 321.983V308.885H336.39C336.854 305.094 338.945 302.094 342.242 301.558V300.777H346.632V294.735H349.611C353.36 294.735 356.489 290.9 357.491 285.683C360.485 285.649 363.225 285.561 365.679 285.428L365.689 287.548C365.067 287.572 364.491 287.655 364.05 287.781C363.356 287.98 363.02 288.266 363.023 288.659L363.027 289.43C363.027 289.484 363.035 289.534 363.054 289.581C362.864 289.697 362.693 289.828 362.542 289.973C362.487 289.908 362.411 289.869 362.328 289.869C362.274 289.869 362.217 289.889 362.17 289.925L362.118 289.964C362.077 289.993 362.035 290.015 361.993 290.037C361.947 290.061 361.907 290.083 361.864 290.109C361.668 290.238 361.493 290.388 361.278 290.577C360.753 291.099 360.385 291.708 360.181 292.392C360.155 292.384 360.115 292.377 360.105 292.377C359.989 292.377 359.885 292.455 359.837 292.576C359.62 293.119 359.51 293.687 359.512 294.259C359.518 295.787 360.324 297.243 361.725 298.252C361.989 298.441 362.253 298.606 362.512 298.744C362.641 298.812 362.769 298.873 362.896 298.926C362.951 298.948 363.006 298.963 363.065 298.97C363.065 298.97 363.067 300.039 363.067 300.047C363.067 300.061 363.069 300.078 363.073 300.095C363.094 300.243 363.183 300.357 363.293 300.389C363.426 300.554 363.864 300.84 365.742 300.871L365.74 301.65C365.552 301.691 365.392 301.839 365.316 302.048C365.293 302.111 365.28 302.179 365.274 302.247C365.071 302.264 364.892 302.404 364.803 302.615C364.672 302.533 364.537 302.492 364.396 302.492C364.297 302.492 364.196 302.514 364.094 302.555C363.71 302.708 363.474 303.11 363.497 303.583C363.518 304.054 363.791 304.425 364.189 304.529C364.261 304.549 364.333 304.561 364.4 304.561C364.567 304.561 364.702 304.502 364.812 304.432C364.9 304.641 365.077 304.781 365.28 304.801C365.284 304.871 365.301 304.941 365.324 305.007C365.398 305.203 365.546 305.342 365.74 305.393L365.738 305.803C365.687 305.827 365.643 305.868 365.609 305.921C365.501 305.972 365.43 306.094 365.43 306.234V306.681C365.43 306.761 365.453 306.836 365.497 306.896C365.501 306.916 365.508 306.933 365.516 306.952L365.381 311.122C365.379 311.216 365.409 311.306 365.464 311.372C365.518 311.435 365.596 311.473 365.674 311.473H366.582C366.66 311.473 366.738 311.435 366.793 311.372C366.847 311.306 366.879 311.216 366.875 311.122L366.742 306.962C366.75 306.94 366.759 306.916 366.763 306.892C366.805 306.833 366.826 306.758 366.826 306.681V306.234C366.826 306.094 366.755 305.972 366.647 305.921C366.617 305.873 366.575 305.834 366.523 305.81V305.422C366.71 305.381 366.869 305.235 366.942 305.029C366.968 304.963 366.982 304.895 366.987 304.825C367.191 304.806 367.373 304.665 367.461 304.452C367.563 304.512 367.693 304.558 367.856 304.558C367.858 304.558 367.919 304.556 367.923 304.556C368.189 304.534 368.43 304.381 368.584 304.136C368.788 303.823 368.82 303.43 368.67 303.084C368.516 302.729 368.198 302.499 367.864 302.499C367.729 302.499 367.596 302.535 367.472 302.606C367.388 302.387 367.204 302.242 366.995 302.225C366.991 302.155 366.976 302.084 366.951 302.016C366.877 301.808 366.715 301.665 366.523 301.626L366.525 300.864C367.109 300.85 367.632 300.804 368.042 300.733C368.63 300.636 368.915 300.51 369.02 300.297C369.105 300.234 369.158 300.129 369.158 300.013C369.158 300.01 369.153 298.849 369.153 298.849C369.153 298.737 369.12 298.635 369.048 298.543C369.126 298.516 369.21 298.477 369.305 298.426C369.339 298.41 369.373 298.39 369.407 298.371C369.457 298.485 369.556 298.553 369.668 298.553C369.685 298.553 369.755 298.54 369.769 298.533C369.833 298.507 369.892 298.48 369.955 298.448C370.006 298.424 370.061 298.402 370.128 298.376C370.212 298.344 370.288 298.312 370.36 298.271C370.698 298.084 371.033 297.793 371.419 297.359C371.738 297 372.001 296.61 372.202 296.202C372.51 295.572 372.67 294.876 372.668 294.191C372.666 293.621 372.558 293.066 372.345 292.535C372.297 292.416 372.191 292.338 372.077 292.338C372.065 292.338 372.025 292.346 371.997 292.353C371.807 291.713 371.472 291.138 370.999 290.641C370.793 290.42 370.548 290.255 370.309 290.097C370.309 290.097 370.088 289.947 369.999 289.889C369.959 289.864 369.915 289.85 369.873 289.85C369.79 289.85 369.71 289.896 369.645 289.978C369.489 289.828 369.305 289.69 369.09 289.556C369.107 289.513 369.115 289.464 369.115 289.416L369.113 288.627C369.109 287.735 367.278 287.57 366.438 287.541L366.43 285.384C380.168 284.572 385.434 282.479 385.434 282.479C388.58 281.343 392.044 278.222 392.215 274.043C392.248 273.218 391.696 272.519 390.98 272.48C390.276 272.442 389.655 273.077 389.622 273.899C389.501 276.812 386.478 278.848 384.658 279.631C382.371 280.613 378.805 280.778 376.571 280.286C373.312 279.274 369.468 277.855 365.565 275.913C353.052 269.681 333.504 253.862 333.504 253.862H323.371V239.707C327.025 239.578 329.955 236.211 330.071 232.01C342.13 230.407 349.082 226.795 349.082 226.795C352.227 225.66 355.691 222.539 355.862 218.359C355.896 217.535 355.343 216.836 354.628 216.797C353.923 216.759 353.303 217.394 353.269 218.216C353.149 221.132 350.126 223.164 348.305 223.948C346.478 224.734 343.837 224.991 341.706 224.816C334.909 222.847 324.934 219.57 318.548 215.723C306.445 208.434 280.797 178.976 276.898 174.459V160.862C276.898 159.906 276.223 159.13 275.39 159.13H275.174C274.816 156.377 274.212 151.81 273.909 149.714C273.721 148.416 272.132 148.375 271.949 149.714C271.693 151.584 271.065 156.304 270.689 159.13H270.442C269.609 159.13 268.934 159.906 268.934 160.862V165.099H266.117C264.805 165.099 263.742 166.322 263.742 167.83V173.856H127.854V167.83C127.854 166.322 126.79 165.099 125.478 165.099H122.66V160.862C122.66 159.906 121.985 159.13 121.151 159.13H120.907C120.529 156.304 119.9 151.584 119.645 149.714C119.463 148.375 117.873 148.416 117.685 149.714C117.381 151.81 116.78 156.377 116.419 159.13H116.206C115.373 159.13 114.698 159.906 114.698 160.862V175.226C109.2 181.78 85.0057 210.161 72.9192 216.574C66.1639 220.157 58.5795 222.735 52.7483 224.409C52.742 224.411 52.7356 224.409 52.7293 224.411C50.6238 225.129 46.4635 225.044 43.9108 223.948C42.0901 223.164 39.069 221.132 38.9487 218.216C38.9129 217.394 38.2947 216.759 37.5901 216.797C36.8728 216.836 36.32 217.535 36.3538 218.359C36.5268 222.539 39.9909 225.66 43.1344 226.795C43.1344 226.795 51.4171 230.295 62.1386 231.933C62.223 236.255 65.2821 239.733 69.0605 239.733H70.0352V253.862H58.7145C58.7145 253.862 39.339 270.635 26.1977 276.534C22.9593 277.989 19.4951 279.173 16.3981 280.092C16.3918 280.094 16.3854 280.092 16.377 280.094C14.2715 280.812 10.1112 280.727 7.56054 279.631C5.73775 278.848 2.71666 276.812 2.5964 273.899C2.56054 273.077 1.9424 272.442 1.23775 272.48C0.520455 272.519 -0.032288 273.218 0.00146728 274.043C0.174463 278.222 3.6386 281.343 6.78206 282.479C6.78206 282.479 12.3285 284.657 26.0458 285.433L26.0542 287.548C25.434 287.572 24.858 287.655 24.4171 287.781C23.723 287.98 23.3875 288.266 23.3897 288.659L23.3918 289.43C23.3918 289.484 23.4023 289.534 23.4213 289.581C23.2314 289.697 23.0605 289.828 22.9086 289.973C22.8538 289.908 22.7778 289.869 22.6956 289.869C22.6386 289.869 22.5837 289.889 22.5352 289.925L22.4846 289.964C22.4445 289.993 22.4023 290.015 22.3601 290.037C22.3137 290.061 22.2736 290.083 22.2314 290.109C22.0352 290.238 21.8601 290.388 21.6449 290.577C21.1196 291.099 20.7504 291.708 20.5479 292.392C20.5226 292.384 20.4825 292.377 20.4719 292.377C20.3559 292.377 20.2504 292.455 20.204 292.576C19.9846 293.119 19.877 293.687 19.8791 294.259C19.8833 295.787 20.6913 297.243 22.0922 298.252C22.3559 298.441 22.6196 298.606 22.8791 298.744C23.0078 298.812 23.1365 298.873 23.261 298.926C23.3179 298.948 23.3728 298.963 23.4297 298.97C23.4297 298.97 23.434 300.039 23.434 300.047C23.434 300.061 23.4361 300.078 23.4403 300.095C23.4614 300.243 23.5479 300.357 23.6597 300.389C23.7926 300.554 24.2314 300.84 26.107 300.871V301.65C25.9192 301.691 25.7589 301.839 25.6829 302.048C25.6597 302.111 25.647 302.179 25.6407 302.247C25.4382 302.264 25.2589 302.404 25.1702 302.615C25.0373 302.533 24.9044 302.492 24.7631 302.492C24.6639 302.492 24.5626 302.514 24.4614 302.555C24.0753 302.708 23.8411 303.11 23.8622 303.583C23.8854 304.054 24.1576 304.425 24.5542 304.529C24.628 304.549 24.6998 304.561 24.7673 304.561C24.9318 304.561 25.069 304.502 25.1787 304.432C25.2673 304.641 25.4445 304.781 25.647 304.801C25.6513 304.871 25.6681 304.941 25.6913 305.007C25.7652 305.203 25.9129 305.342 26.107 305.393L26.1048 305.803C26.0542 305.827 26.0099 305.868 25.9761 305.921C25.8686 305.972 25.7968 306.094 25.7968 306.234V306.681C25.7968 306.761 25.82 306.836 25.8643 306.896C25.8686 306.916 25.8749 306.933 25.8833 306.952L25.7483 311.122C25.7462 311.216 25.7757 311.306 25.8306 311.372C25.8854 311.435 25.9635 311.473 26.0415 311.473H26.9466C27.0268 311.473 27.1048 311.435 27.1597 311.372C27.2145 311.306 27.2441 311.216 27.242 311.122L27.1091 306.962C27.1175 306.94 27.1238 306.916 27.1302 306.892C27.1724 306.833 27.1934 306.758 27.1934 306.681V306.234C27.1934 306.094 27.1217 305.972 27.0141 305.921C26.9846 305.873 26.9424 305.834 26.8897 305.81V305.422C27.0774 305.381 27.2356 305.235 27.3095 305.029C27.3348 304.963 27.3496 304.895 27.3538 304.825C27.5584 304.806 27.7399 304.665 27.8285 304.452C27.9297 304.512 28.0584 304.558 28.223 304.558C28.2251 304.558 28.2863 304.556 28.2905 304.556C28.5563 304.534 28.7968 304.381 28.9508 304.136C29.1555 303.823 29.1871 303.43 29.0373 303.084C28.8833 302.729 28.5648 302.499 28.2293 302.499C28.0964 302.499 27.9635 302.535 27.839 302.606C27.7546 302.387 27.5711 302.242 27.3622 302.225C27.3559 302.155 27.3432 302.084 27.3179 302.016C27.2441 301.808 27.0816 301.665 26.8897 301.626L26.8918 300.864C27.4761 300.85 27.9994 300.804 28.4086 300.733C28.9951 300.636 29.2821 300.51 29.3875 300.297C29.4719 300.234 29.5247 300.129 29.5247 300.013C29.5247 300.01 29.5205 298.849 29.5205 298.849C29.5205 298.737 29.4846 298.635 29.415 298.543C29.493 298.516 29.5774 298.477 29.6724 298.426C29.7061 298.41 29.7399 298.39 29.7736 298.371C29.8242 298.485 29.9234 298.553 30.0352 298.553C30.0521 298.553 30.1196 298.54 30.1365 298.533C30.1977 298.507 30.2589 298.48 30.3221 298.448C30.3728 298.424 30.4276 298.402 30.4951 298.376C30.5774 298.344 30.6555 298.312 30.7251 298.271C31.0626 298.084 31.4002 297.793 31.7863 297.359C32.1048 297 32.3686 296.61 32.569 296.202C32.877 295.572 33.0373 294.876 33.0352 294.191C33.0331 293.621 32.9234 293.066 32.7124 292.535C32.6639 292.416 32.5584 292.338 32.4445 292.338C32.4318 292.338 32.3918 292.346 32.3643 292.353C32.1745 291.713 31.839 291.138 31.3664 290.641C31.1597 290.42 30.915 290.255 30.6766 290.097C30.6766 290.097 30.4551 289.947 30.3643 289.889C30.3264 289.864 30.2821 289.85 30.2378 289.85C30.1576 289.85 30.0774 289.896 30.012 289.978C29.8559 289.828 29.6724 289.69 29.4572 289.556C29.474 289.513 29.4825 289.464 29.4825 289.416L29.4804 288.627C29.4761 287.735 27.6449 287.57 26.8053 287.541L26.7968 285.469C29.1956 285.593 31.8348 285.673 34.7293 285.692C35.7314 290.905 38.858 294.735 42.6048 294.735H45.5859V300.777H48.7631V301.558C52.0626 302.094 54.1513 305.094 54.6175 308.885H55.9192V321.578C55.2272 321.658 54.6787 322.308 54.6787 323.126C54.6787 323.834 55.088 324.426 55.647 324.627C55.5943 325.236 55.5352 325.896 55.4846 326.466H55.2673C54.7989 326.466 54.4192 326.902 54.4192 327.438V329.43H34.3517V327.438C34.3517 326.902 33.9719 326.466 33.5036 326.466H33.2842C33.2314 325.893 33.1745 325.231 33.1196 324.627C33.6808 324.428 34.0922 323.836 34.0922 323.126C34.0922 322.253 33.4783 321.547 32.7209 321.547C31.9614 321.547 31.3475 322.253 31.3475 323.126C31.3475 323.834 31.7567 324.426 32.3179 324.627C32.2631 325.236 32.204 325.896 32.1534 326.466H31.9361C31.4677 326.466 31.088 326.902 31.088 327.438V329.43H11.0205V327.438C11.0205 326.902 10.6407 326.466 10.1745 326.466H9.95294C9.90231 325.893 9.84324 325.231 9.78839 324.627C10.3496 324.428 10.761 323.836 10.761 323.126C10.761 322.253 10.147 321.547 9.38965 321.547C8.63016 321.547 8.01623 322.253 8.01623 323.126C8.01623 323.834 8.42552 324.426 8.9867 324.627C8.93185 325.236 8.87277 325.896 8.82214 326.466H8.60484C8.13649 326.466 7.75674 326.902 7.75674 327.438V343.025H6.03944V411.379H818.845V360.198C819.212 327.024 844.141 300.25 874.854 300.25C905.246 300.25 929.968 326.468 930.839 359.16V411.379H1364.01V356.397H1319.5V325.711ZM1061.18 267.278C1066.61 269.771 1072.16 271.001 1072.56 261.891C1073.78 263.208 1075.98 264.406 1078.56 265.255C1078.33 265.524 1078.09 265.784 1077.85 266.029C1073.8 270.176 1068.79 271.001 1063.63 271.433C1062.71 271.508 1058.64 271.845 1059.4 269.439C1059.63 268.704 1060.39 267.962 1061.18 267.278ZM1029.8 267.87C1029.95 266.829 1029.99 265.779 1029.95 264.728C1032.84 264.44 1035.75 262.805 1037.16 259.897C1039.16 265.752 1051.27 272.471 1052.46 263.348C1054.2 263.661 1056.87 265.18 1059.71 266.577C1059.67 266.632 1059.63 266.693 1059.59 266.746C1054.67 273.528 1046.07 273.07 1039.2 272.866C1036.39 272.784 1033.35 273.795 1030.6 273.363C1027.88 272.936 1029.5 269.885 1029.8 267.87ZM906.385 255.773C904.447 255.589 902.48 255.412 900.605 254.755C898.828 254.131 897.63 252.986 896.444 251.395C895.696 250.391 894.014 248.802 893.582 250.973C893.388 251.956 894.28 251.89 894.615 252.467C894.928 252.999 894.995 254.296 894.577 254.798C893.818 255.715 892.499 254.616 891.712 254.367C887.987 253.185 883.864 251.434 881.155 247.999C880.681 247.398 880.255 246.755 879.833 246.105C881.286 245.086 882.607 244.211 883.628 243.934C890.048 242.188 895.217 250.26 901.643 246.217C903.248 249.569 906.333 251.308 909.841 251.793C910.179 252.591 910.556 253.481 910.533 254.333C910.463 257.025 907.748 255.902 906.385 255.773ZM416.442 225.913H406.919V217.426C410.445 217.426 413.588 217.426 416.442 217.426V225.913ZM418.122 217.426C423.531 217.426 427.782 217.426 431.229 217.426V225.913H418.122V217.426ZM406.919 227.753H416.442V237.533H406.919V227.753ZM418.122 227.753H431.229V237.533H418.122V227.753ZM472.757 227.753V237.533H459.649V227.753H472.757ZM459.649 225.913V217.426C463.071 217.426 467.318 217.426 472.757 217.426V225.913H459.649ZM484.164 237.533H474.436V227.753H484.164V237.533ZM459.649 247.126V239.374H472.757V247.126H459.649ZM432.909 247.126V239.374H442.312V247.126H432.909ZM448.772 239.374H457.97V247.126H448.772V239.374ZM457.97 237.533H448.772V227.753H457.97V237.533ZM442.312 237.533H432.909V227.753H442.312V237.533ZM431.229 239.374V247.126H418.122V239.374H431.229ZM474.436 247.126V239.374H484.164V247.126H474.436ZM483.672 217.426C483.841 217.426 483.997 217.418 484.164 217.416V225.913H474.436V217.426C477.208 217.426 480.253 217.426 483.672 217.426ZM457.97 217.426V225.913H448.772V217.426C451.244 217.426 454.044 217.426 457.97 217.426ZM442.312 217.426V225.913H432.909V217.426C436.936 217.426 439.814 217.426 442.312 217.426ZM406.919 239.374H416.442V247.126H406.919V239.374ZM365.913 289.35C365.919 289.35 365.926 289.35 365.932 289.35C365.932 289.36 365.932 289.372 365.934 289.382C365.926 289.372 365.919 289.36 365.913 289.35ZM26.2778 289.35C26.2863 289.35 26.2926 289.35 26.2989 289.35C26.2989 289.36 26.2989 289.372 26.301 289.382C26.2926 289.372 26.2863 289.36 26.2778 289.35ZM62.5795 308.885H63.8812C64.3475 305.094 66.4361 302.094 69.7335 301.558V300.777H98.9044V301.558C102.202 302.094 104.29 305.094 104.757 308.885H106.058V329.43H104.345V327.438C104.345 326.902 103.966 326.466 103.497 326.466H103.276C103.225 325.893 103.166 325.231 103.113 324.627C103.674 324.428 104.086 323.836 104.086 323.126C104.086 322.253 103.472 321.547 102.712 321.547C101.955 321.547 101.341 322.253 101.341 323.126C101.341 323.834 101.75 324.426 102.309 324.627C102.255 325.236 102.198 325.896 102.147 326.466H101.93C101.461 326.466 101.082 326.902 101.082 327.438V329.43H81.0141V327.438C81.0141 326.902 80.6344 326.466 80.166 326.466H79.9466C79.8939 325.893 79.8348 325.231 79.7821 324.627C80.3432 324.428 80.7546 323.836 80.7546 323.126C80.7546 322.253 80.1407 321.547 79.3812 321.547C78.6238 321.547 78.0099 322.253 78.0099 323.126C78.0099 323.834 78.4192 324.426 78.9783 324.627C78.9234 325.236 78.8664 325.896 78.8158 326.466H78.5985C78.1302 326.466 77.7504 326.902 77.7504 327.438V329.43H62.5795V308.885ZM62.5795 330.955C65.6407 330.987 66.858 332.954 67.3432 335.598H62.5795V330.955ZM77.7504 335.598H68.2483V335.484C68.7567 332.876 70.0648 330.948 73.0605 330.948C75.9213 330.948 77.1829 332.624 77.7504 334.955V335.598ZM81.0141 335.598V335.547C81.5141 332.906 82.8179 330.948 85.839 330.948C88.9572 330.948 90.185 332.932 90.6723 335.598H81.0141ZM101.082 335.598H91.5795V335.484C92.088 332.876 93.396 330.948 96.3918 330.948C99.2525 330.948 100.514 332.624 101.082 334.958V335.598ZM112.719 308.885H114.02C114.487 305.094 116.575 302.094 119.873 301.558V300.777H156.314V301.558C159.611 302.094 161.702 305.094 162.166 308.885H163.47V329.43H151.008V327.438C151.008 326.902 150.628 326.466 150.16 326.466H149.938C149.888 325.893 149.828 325.231 149.776 324.627C150.337 324.428 150.748 323.836 150.748 323.126C150.748 322.253 150.132 321.547 149.375 321.547C148.617 321.547 148.004 322.253 148.004 323.126C148.004 323.834 148.413 324.426 148.972 324.627C148.917 325.236 148.86 325.896 148.809 326.466H148.59C148.122 326.466 147.744 326.902 147.744 327.438V329.43H127.677V327.438C127.677 326.902 127.297 326.466 126.828 326.466H126.607C126.556 325.893 126.497 325.231 126.445 324.627C127.006 324.428 127.417 323.836 127.417 323.126C127.417 322.253 126.803 321.547 126.044 321.547C125.286 321.547 124.672 322.253 124.672 323.126C124.672 323.834 125.082 324.426 125.641 324.627C125.586 325.236 125.529 325.896 125.478 326.466H125.259C124.79 326.466 124.413 326.902 124.413 327.438V329.43H112.719V308.885ZM287.729 335.598H284.947V331.273C286.504 331.863 287.309 333.228 287.729 334.958V335.598ZM278.288 335.598H278.229V335.484C278.244 335.399 278.269 335.321 278.288 335.237V335.598ZM276.987 308.885H278.288V329.43H267.662V327.438C267.662 326.902 267.282 326.466 266.816 326.466H266.594C266.544 325.893 266.485 325.231 266.43 324.627C266.993 324.428 267.402 323.836 267.402 323.126C267.402 322.253 266.788 321.547 266.031 321.547C265.272 321.547 264.658 322.253 264.658 323.126C264.658 323.834 265.067 324.426 265.628 324.627C265.573 325.236 265.514 325.896 265.466 326.466H265.246C264.778 326.466 264.398 326.902 264.398 327.438V329.43H244.331V327.438C244.331 326.902 243.953 326.466 243.485 326.466H243.263C243.212 325.893 243.153 325.231 243.098 324.627C243.662 324.428 244.071 323.836 244.071 323.126C244.071 322.253 243.457 321.547 242.7 321.547C241.942 321.547 241.326 322.253 241.326 323.126C241.326 323.834 241.736 324.426 242.297 324.627C242.242 325.236 242.183 325.896 242.134 326.466H241.915C241.447 326.466 241.067 326.902 241.067 327.438V329.43H227.537V308.885H228.839C229.305 305.094 231.394 302.094 234.693 301.558V300.777H271.132V301.558C274.432 302.094 276.52 305.094 276.987 308.885ZM277.322 335.598H267.662V335.547C268.162 332.906 269.466 330.948 272.487 330.948C275.607 330.948 276.833 332.932 277.322 335.598ZM264.398 335.598H254.898V335.484C255.407 332.876 256.712 330.948 259.71 330.948C262.571 330.948 263.831 332.624 264.398 334.958V335.598ZM253.991 335.598H244.331V335.547C244.831 332.906 246.134 330.948 249.155 330.948C252.276 330.948 253.501 332.932 253.991 335.598ZM241.067 335.598H231.567V335.484C232.075 332.876 233.381 330.948 236.379 330.948C239.24 330.948 240.499 332.624 241.067 334.958V335.598ZM227.537 331.217C229.411 331.831 230.274 333.493 230.66 335.598H227.537V331.217ZM219.577 308.885H220.879V326.965C220.734 326.672 220.468 326.466 220.153 326.466H219.932C219.881 325.893 219.822 325.231 219.767 324.627C220.331 324.428 220.74 323.836 220.74 323.126C220.74 322.253 220.126 321.547 219.369 321.547C218.611 321.547 217.995 322.253 217.995 323.126C217.995 323.834 218.407 324.426 218.966 324.627C218.911 325.236 218.852 325.896 218.803 326.466H218.584C218.115 326.466 217.736 326.902 217.736 327.438V329.43H197.668V327.438C197.668 326.902 197.29 326.466 196.822 326.466H196.601C196.55 325.893 196.491 325.231 196.438 324.627C196.999 324.428 197.411 323.836 197.411 323.126C197.411 322.253 196.795 321.547 196.037 321.547C195.28 321.547 194.664 322.253 194.664 323.126C194.664 323.834 195.075 324.426 195.634 324.627C195.58 325.236 195.523 325.896 195.472 326.466H195.253C194.784 326.466 194.404 326.902 194.404 327.438V329.43H174.339V327.438C174.339 326.902 173.959 326.466 173.491 326.466H173.269C173.219 325.893 173.16 325.231 173.107 324.627C173.668 324.428 174.08 323.836 174.08 323.126C174.08 322.253 173.463 321.547 172.706 321.547C171.949 321.547 171.335 322.253 171.335 323.126C171.335 323.834 171.744 324.426 172.303 324.627C172.248 325.236 172.191 325.896 172.141 326.466H171.921C171.453 326.466 171.075 326.902 171.075 327.438V329.43H170.128V308.885H171.43C171.896 305.094 173.985 302.094 177.284 301.558V300.777H213.723V301.558C217.023 302.094 219.111 305.094 219.577 308.885ZM217.736 335.598H208.236V335.484C208.744 332.876 210.05 330.948 213.048 330.948C215.909 330.948 217.168 332.624 217.736 334.958V335.598ZM207.328 335.598H197.668V335.547C198.168 332.906 199.472 330.948 202.493 330.948C205.613 330.948 206.839 332.932 207.328 335.598ZM194.404 335.598H184.904V335.484C185.413 332.876 186.719 330.948 189.717 330.948C192.577 330.948 193.837 332.624 194.404 334.958V335.598ZM183.997 335.598H174.339V335.547C174.837 332.906 176.141 330.948 179.164 330.948C182.282 330.948 183.508 332.932 183.997 335.598ZM163.47 335.598H161.573V335.484C161.869 333.963 162.451 332.687 163.47 331.877V335.598ZM170.128 332.726C170.563 333.352 170.869 334.109 171.075 334.958V335.598H170.128V332.726ZM160.666 335.598H151.008V335.547C151.508 332.906 152.809 330.948 155.833 330.948C158.951 330.948 160.177 332.932 160.666 335.598ZM147.744 335.598H138.242V335.484C138.75 332.876 140.056 330.948 143.054 330.948C145.915 330.948 147.174 332.624 147.744 334.958V335.598ZM137.335 335.598H127.677V335.547C128.177 332.906 129.478 330.948 132.501 330.948C135.62 330.948 136.845 332.932 137.335 335.598ZM124.413 335.598H114.911V335.484C115.419 332.876 116.725 330.948 119.723 330.948C122.584 330.948 123.845 332.624 124.413 334.958V335.598ZM112.719 332.467C113.379 333.279 113.778 334.358 114.004 335.598H112.719V332.467ZM106.058 335.598H104.345V335.547C104.62 334.099 105.149 332.869 106.058 332.042V335.598ZM290.993 335.598V335.547C291.493 332.906 292.797 330.948 295.818 330.948C298.936 330.948 300.164 332.932 300.653 335.598H290.993ZM311.061 335.598H301.558V335.484C302.067 332.876 303.375 330.948 306.373 330.948C309.234 330.948 310.493 332.624 311.061 334.958V335.598ZM314.324 335.598V335.547C314.824 332.906 316.128 330.948 319.149 330.948C322.267 330.948 323.495 332.932 323.985 335.598H314.324ZM328.428 335.598H324.89V335.484C325.32 333.284 326.328 331.586 328.428 331.101V335.598ZM314.324 329.43V327.438C314.324 326.902 313.945 326.466 313.476 326.466H313.257C313.206 325.893 313.147 325.231 313.092 324.627C313.653 324.428 314.065 323.836 314.065 323.126C314.065 322.253 313.451 321.547 312.693 321.547C311.934 321.547 311.32 322.253 311.32 323.126C311.32 323.834 311.729 324.426 312.291 324.627C312.236 325.236 312.177 325.896 312.126 326.466H311.909C311.44 326.466 311.061 326.902 311.061 327.438V329.43H290.993V327.438C290.993 326.902 290.613 326.466 290.147 326.466H289.926C289.875 325.893 289.816 325.231 289.761 324.627C290.322 324.428 290.734 323.836 290.734 323.126C290.734 322.253 290.12 321.547 289.362 321.547C288.603 321.547 287.989 322.253 287.989 323.126C287.989 323.834 288.398 324.426 288.959 324.627C288.904 325.236 288.845 325.896 288.795 326.466H288.577C288.109 326.466 287.729 326.902 287.729 327.438V329.43H284.947V308.885H286.248C286.715 305.094 288.805 302.094 292.103 301.558V300.777H321.272V301.558C324.571 302.094 326.66 305.094 327.126 308.885H328.428V329.43H314.324ZM371.552 335.484C372.061 332.876 373.369 330.948 376.364 330.948C379.478 330.948 380.706 332.923 381.196 335.581V335.598H371.552V335.484ZM360.987 335.547C361.487 332.906 362.791 330.948 365.812 330.948C368.93 330.948 370.158 332.932 370.645 335.598H360.987V335.547ZM348.221 335.484C348.729 332.876 350.037 330.948 353.035 330.948C355.894 330.948 357.155 332.624 357.723 334.958V335.598H348.221V335.484ZM337.655 335.547C338.155 332.906 339.459 330.948 342.48 330.948C345.599 330.948 346.826 332.932 347.316 335.598H337.655V335.547ZM335.622 324.627C335.567 325.236 335.508 325.896 335.457 326.466H335.24C335.185 326.466 335.139 326.49 335.088 326.5V324.246C335.24 324.411 335.415 324.552 335.622 324.627ZM224.7 253.862V239.733H267.377V253.862H224.7ZM218.042 239.733V253.862H175.364V239.733H218.042ZM168.706 239.733V253.862H126.031V239.733H168.706ZM274.035 253.862V239.733H316.712V253.862H274.035ZM76.6956 239.733H119.371V253.862H76.6956V239.733ZM44.9171 335.484C45.4255 332.876 46.7335 330.948 49.7314 330.948C52.5901 330.948 53.8517 332.624 54.4192 334.958V335.598H44.9171V335.484ZM34.3517 335.547C34.8517 332.906 36.1555 330.948 39.1766 330.948C42.2947 330.948 43.5226 332.932 44.012 335.598H34.3517V335.547ZM21.5859 335.484C22.0943 332.876 23.4023 330.948 26.4002 330.948C29.2588 330.948 30.5205 332.624 31.088 334.958V335.598H21.5859V335.484ZM11.0205 335.547C11.5205 332.906 12.8243 330.948 15.8453 330.948C18.9635 330.948 20.1913 332.932 20.6808 335.598H11.0205V335.547ZM1304.89 297.83C1306.65 297.83 1308.36 297.789 1310.04 297.73V325.711H1302.74V297.83C1303.46 297.83 1304.16 297.83 1304.89 297.83ZM1288.85 235.156C1289.65 235.156 1290.41 235.127 1291.2 235.113V253.879H1287.52V235.156C1287.97 235.156 1288.39 235.156 1288.85 235.156ZM1268.83 170.009C1270.11 170.009 1271.33 169.97 1272.53 169.914V192.85H1267.7V170.009C1268.08 170.009 1268.44 170.009 1268.83 170.009ZM1181.83 169.907C1182.87 169.967 1183.91 170.009 1184.97 170.009C1185.7 170.009 1186.4 170.009 1187.1 170.009V192.85H1181.83V169.907ZM1163.33 235.13C1163.71 235.137 1164.09 235.156 1164.47 235.156C1165.43 235.156 1166.36 235.156 1167.28 235.156V253.879H1163.33V235.13ZM1144.56 297.759C1145.71 297.801 1146.87 297.83 1148.04 297.83C1149.41 297.83 1150.74 297.83 1152.06 297.83V325.711H1144.56V297.759ZM1133.22 349.751C1133.53 348.109 1134.16 346.734 1135.31 345.926V349.802H1133.22V349.751ZM1120.46 349.688C1120.97 347.08 1122.27 345.152 1125.27 345.152C1128.13 345.152 1129.39 346.828 1129.96 349.162V349.802H1120.46V349.688ZM1109.89 349.751C1110.39 347.11 1111.69 345.152 1114.71 345.152C1117.83 345.152 1119.06 347.134 1119.55 349.802H1109.89V349.751ZM1097.13 349.688C1097.63 347.08 1098.94 345.152 1101.94 345.152C1104.8 345.152 1106.06 346.828 1106.63 349.162V349.802H1097.13V349.688ZM1086.56 349.751C1087.06 347.11 1088.36 345.152 1091.38 345.152C1094.5 345.152 1095.73 347.134 1096.22 349.802H1086.56V349.751ZM1073.79 349.688C1074.3 347.08 1075.61 345.152 1078.61 345.152C1081.47 345.152 1082.73 346.828 1083.29 349.159V349.802H1073.79V349.688ZM1063.23 349.751C1063.73 347.11 1065.03 345.152 1068.05 345.152C1071.17 345.152 1072.4 347.134 1072.89 349.802H1063.23V349.751ZM1059.96 349.162V349.802H1057.51C1057.21 348.123 1056.58 346.612 1055.75 345.193C1058.27 345.378 1059.43 346.969 1059.96 349.162ZM975.641 204.599C974.919 205.191 974.052 205.545 973.36 206.181C972.875 206.625 972.727 207.163 972.037 207.182C970.605 207.226 970.008 205.455 969.869 203.767C974.647 202.676 978.814 201.432 979.972 201.667C980.008 201.674 980.039 201.684 980.073 201.691C978.544 202.533 977.05 203.447 975.641 204.599ZM986.554 140.89C989.584 140.235 992.565 139.11 994.911 136.941C997.858 139.767 1004.19 138.253 1007.78 135.411C1006.33 140.604 1003.85 145.152 999.936 148.412C995.957 151.73 991.141 152.744 986.693 154.81C986.605 154.701 986.523 154.589 986.43 154.483C987.17 150.08 987.117 145.341 986.554 140.89ZM975.904 139.752C978.474 140.196 979.191 141.841 982.658 141.516C982.187 143.616 981.801 145.746 981.434 147.97C981.303 148.766 981.17 149.556 981.037 150.345C977.48 148.441 973.149 147.218 968.89 146.84C968.634 146.42 968.379 146.001 968.153 145.537C967.544 144.288 967.052 142.947 966.655 141.555C970.664 140.943 974.961 139.587 975.904 139.752ZM969.434 233.267C969.362 233.308 969.297 233.356 969.231 233.405C969.263 233.141 969.288 232.869 969.301 232.59C969.345 232.813 969.388 233.041 969.434 233.267ZM953.493 205.713C952.183 204.422 949.691 203.015 949.069 201.077C948.885 200.503 948.74 199.239 948.301 198.95C948.242 198.911 948.168 198.904 948.101 198.885C949.752 198.514 951.25 197.953 952.419 197.221C949.803 206.351 958.653 206.033 967.058 204.369C967.09 207.43 967.447 211.163 964.525 212.254C963.322 212.705 961.968 211.934 960.913 211.308C958.305 209.766 955.742 207.932 953.493 205.713ZM935.474 253.964C934.812 254.311 934.115 254.565 933.4 254.694C932.341 254.883 931.328 254.827 930.265 255.123C928.925 255.497 927.879 256.78 926.514 256.921C924.643 257.117 922.731 255.899 921.023 255.106C920.246 254.747 919.592 254.199 918.86 253.746C917.919 253.161 916.833 253.137 915.896 252.567C915.522 252.339 915.166 252.038 914.822 251.706C920.13 250.859 925.322 247.74 927.24 243.42C931.295 243.051 935.067 244.926 939.054 245.518C940.025 245.661 941.058 245.872 942.098 246.003C941.533 248.412 940.579 250.767 938.759 252.118C937.738 252.877 936.569 253.391 935.474 253.964ZM973.206 268.226C970.035 265.905 966.681 263.96 963.063 262.868C960.715 262.157 958.24 261.995 955.925 261.175C955.126 260.891 954.371 260.634 953.548 260.45C952.457 260.202 951.727 259.581 950.734 259.053C949.535 258.417 948.596 257.328 947.742 256.161C947.29 255.545 946.373 256.062 946.531 256.882C946.653 257.51 947.394 259.281 947.21 259.831C946.989 260.498 945.649 261.005 945.12 260.93C945.096 260.84 945.092 260.755 945.069 260.666C942.978 260.312 940.816 260.607 938.706 260.202C936.316 259.742 936.571 258.167 938.219 256.579C940.244 254.626 942.198 252.564 943.759 250.051C944.605 248.688 945.244 247.284 945.734 245.85C945.902 245.802 946.073 245.761 946.24 245.695C947.453 245.215 948.752 242.901 949.476 242.707C951.717 242.122 955.966 242.147 959.959 241.346C960.864 241.162 961.752 240.931 962.605 240.645C962.535 242.928 963.797 245.353 965.951 245.135C966.4 245.094 966.816 245.055 967.219 245.023C967.136 246.057 967.472 247.17 968.13 247.883C969.55 249.404 970.868 250.187 972.645 249.971C973.421 254.214 974.366 258.444 975.98 262.254C976.932 264.498 978.202 266.516 979.415 268.563C979.894 269.371 981.073 270.802 981.204 271.772C981.347 272.825 980.267 273.589 979.417 273.412C978.634 273.252 978.485 272.483 977.866 271.901C976.423 270.542 974.772 269.373 973.206 268.226ZM947.957 316.24C948.225 314.454 948.921 313.623 950.493 315.286C952.124 317.023 952.755 319.303 953.012 321.683C953.012 321.687 953.012 321.69 953.012 321.692C951.345 319.839 949.66 318.052 947.957 316.327C947.957 316.298 947.957 316.269 947.957 316.24ZM942.293 310.855C942.563 309.019 943.271 308.102 944.894 309.645C946.567 311.248 947.214 313.479 947.474 315.842C945.765 314.129 944.037 312.478 942.293 310.894C942.293 310.879 942.293 310.867 942.293 310.855ZM935.293 304.861C935.573 303.025 936.301 302.067 937.951 303.44C939.546 304.777 940.215 306.753 940.518 308.902C940.518 309.038 940.518 309.176 940.518 309.312C938.793 307.796 937.05 306.341 935.293 304.949C935.293 304.92 935.293 304.891 935.293 304.861ZM929.379 300.505C929.66 298.618 930.398 297.575 932.092 298.827C933.837 300.124 934.516 302.237 934.788 304.553C932.999 303.151 931.195 301.815 929.379 300.544C929.379 300.529 929.379 300.517 929.379 300.505ZM922.284 295.858C922.577 293.976 923.328 292.889 925.042 293.976C926.432 294.863 927.149 296.319 927.531 298.002C927.531 298.429 927.531 298.858 927.531 299.285C925.795 298.116 924.046 296.998 922.284 295.948C922.284 295.916 922.284 295.887 922.284 295.858ZM916.177 292.515C916.466 290.582 917.227 289.413 918.976 290.374C920.778 291.375 921.482 293.369 921.763 295.637C919.913 294.546 918.05 293.517 916.177 292.554C916.177 292.542 916.177 292.528 916.177 292.515ZM908.7 288.989C908.999 287.056 909.771 285.845 911.529 286.638C913.231 287.412 913.949 289.151 914.274 291.194C914.274 291.332 914.274 291.468 914.274 291.603C912.423 290.701 910.567 289.857 908.7 289.078C908.7 289.049 908.7 289.018 908.7 288.989ZM902.444 286.675C902.74 284.693 903.516 283.398 905.307 284.065C907.153 284.761 907.877 286.636 908.164 288.858C906.265 288.077 904.358 287.364 902.444 286.714C902.444 286.701 902.444 286.687 902.444 286.675ZM894.822 284.39C895.126 282.408 895.911 281.069 897.702 281.569C899.436 282.064 900.17 283.682 900.501 285.671C900.501 285.806 900.501 285.945 900.501 286.08C898.613 285.484 896.721 284.948 894.822 284.48C894.822 284.448 894.822 284.419 894.822 284.39ZM888.472 283.104C888.774 281.072 889.558 279.65 891.375 280.024C893.25 280.417 893.985 282.173 894.278 284.346C892.347 283.881 890.411 283.478 888.472 283.143C888.472 283.129 888.472 283.116 888.472 283.104ZM880.769 282.059C881.075 280.029 881.866 278.561 883.677 278.772C885.402 278.981 886.164 280.427 886.506 282.318C886.506 282.488 886.506 282.658 886.506 282.825C884.596 282.539 882.683 282.311 880.769 282.149C880.769 282.12 880.769 282.09 880.769 282.059ZM874.377 281.802C874.679 279.723 875.468 278.173 877.297 278.251C879.183 278.343 879.923 279.978 880.221 282.105C878.274 281.952 876.326 281.862 874.377 281.841C874.377 281.829 874.377 281.814 874.377 281.802ZM866.653 282.001C866.961 279.92 867.75 278.326 869.565 278.244C871.295 278.173 872.058 279.498 872.402 281.334C872.402 281.503 872.402 281.673 872.402 281.843C870.485 281.862 868.569 281.943 866.653 282.088C866.653 282.059 866.653 282.03 866.653 282.001ZM860.274 282.77C860.575 280.642 861.36 278.966 863.185 278.75C865.069 278.537 865.809 280.055 866.105 282.132C864.16 282.292 862.215 282.517 860.274 282.808C860.274 282.796 860.274 282.782 860.274 282.77ZM852.594 284.21C852.9 282.078 853.683 280.359 855.485 279.985C857.204 279.638 857.963 280.836 858.305 282.622C858.305 282.789 858.305 282.959 858.305 283.129C856.398 283.456 854.493 283.844 852.594 284.298C852.594 284.269 852.594 284.239 852.594 284.21ZM846.276 286.008C846.575 283.83 847.349 282.027 849.155 281.518C851.02 281.001 851.757 282.401 852.05 284.431C850.12 284.904 848.196 285.443 846.276 286.047C846.276 286.034 846.276 286.02 846.276 286.008ZM838.704 288.69C839.006 286.51 839.776 284.662 841.55 283.997C843.246 283.371 843.995 284.448 844.333 286.175C844.333 286.345 844.333 286.512 844.333 286.682C842.451 287.32 840.573 288.016 838.704 288.778C838.704 288.749 838.704 288.719 838.704 288.69ZM832.501 291.514C832.795 289.289 833.554 287.361 835.326 286.556C837.158 285.736 837.881 287.014 838.17 288.998C836.271 289.784 834.381 290.636 832.501 291.552C832.501 291.54 832.501 291.528 832.501 291.514ZM825.101 295.438C825.394 293.209 826.143 291.235 827.877 290.277C829.535 289.372 830.267 290.328 830.598 291.999C830.598 292.169 830.598 292.338 830.598 292.508C828.757 293.454 826.923 294.456 825.101 295.528C825.101 295.499 825.101 295.467 825.101 295.438ZM819.065 299.292C819.35 297.017 820.086 294.963 821.809 293.864C823.592 292.741 824.299 293.9 824.579 295.836C822.729 296.935 820.89 298.101 819.065 299.331C819.065 299.317 819.065 299.305 819.065 299.292ZM811.898 304.456C812.181 302.179 812.904 300.076 814.582 298.829C816.185 297.645 816.898 298.477 817.219 300.093C817.219 300.263 817.219 300.432 817.219 300.602C815.432 301.856 813.658 303.168 811.898 304.546C811.898 304.517 811.898 304.488 811.898 304.456ZM806.082 309.339C806.354 307.015 807.063 304.832 808.723 303.443C810.44 302.014 811.124 303.054 811.394 304.941C809.607 306.356 807.837 307.835 806.082 309.378C806.082 309.363 806.082 309.351 806.082 309.339ZM799.21 315.745C799.482 313.416 800.172 311.19 801.78 309.649C803.316 308.187 803.999 308.895 804.307 310.457C804.307 310.627 804.307 310.797 804.307 310.967C802.592 312.529 800.892 314.149 799.21 315.835C799.21 315.805 799.21 315.776 799.21 315.745ZM793.666 321.653C793.925 319.284 794.599 316.975 796.181 315.289C797.818 313.559 798.472 314.479 798.729 316.32C797.022 318.047 795.335 319.837 793.666 321.695C793.666 321.68 793.666 321.668 793.666 321.653ZM766.904 316.334L759.309 316.346L759.303 310.321L766.898 310.309L766.904 316.334ZM766.866 279.801L766.896 307.787L759.301 307.796L759.271 279.813L766.866 279.801ZM578.392 233.614L607.333 233.572L607.339 240.051L578.398 240.092L578.392 233.614ZM754.641 239.842L748.031 239.85L748.025 233.371L754.634 233.364L754.641 239.842ZM754.601 203.309L754.63 230.839L748.023 230.848L747.991 203.319L754.601 203.309ZM741.767 239.859L709.695 239.905L709.689 233.427L741.761 233.381L741.767 239.859ZM735.957 169L728.029 169.009L728.023 162.73L735.951 162.72L735.957 169ZM735.917 130.751L735.949 160.195L728.018 160.207L727.989 130.761L735.917 130.751ZM741.727 203.326L741.757 230.858L709.685 230.904L709.655 203.372L741.727 203.326ZM721.765 169.019L702.972 169.046L702.966 162.766L721.759 162.739L721.765 169.019ZM721.723 130.771L721.755 160.217L702.963 160.243L702.932 130.797L721.723 130.771ZM696.696 169.055L663.7 169.101L663.693 162.822L696.689 162.776L696.696 169.055ZM696.655 130.807L696.687 160.251L663.691 160.299L663.658 130.853L696.655 130.807ZM657.423 169.111L620.185 169.165L620.179 162.882L657.417 162.831L657.423 169.111ZM657.383 130.863L657.415 160.306L620.177 160.36L620.145 130.916L657.383 130.863ZM613.921 169.172L598.248 169.196L598.242 162.914L613.915 162.892L613.921 169.172ZM613.879 130.923L613.913 160.37L598.24 160.391L598.208 130.945L613.879 130.923ZM591.985 168.592C591.377 168.806 590.776 169.012 590.185 169.206L583.402 169.215L583.396 162.936L591.978 162.924L591.985 168.592ZM591.944 130.955L591.976 160.401L583.394 160.413L583.362 130.967L591.944 130.955ZM607.299 203.517L607.331 231.05L578.39 231.091L578.36 203.559L607.299 203.517ZM572.134 240.102L564.86 240.112L564.854 233.633L572.128 233.623L572.134 240.102ZM572.096 203.568L572.126 231.098L564.85 231.108L564.82 203.578L572.096 203.568ZM556.668 316.635L548.753 316.645L548.746 310.62L556.662 310.61L556.668 316.635ZM556.63 280.102L556.66 308.085L548.744 308.097L548.712 280.111L556.63 280.102Z" fill="#C2AF93"/>
</svg>
