<svg width="227" height="227" viewBox="0 0 227 227" fill="none" xmlns="http://www.w3.org/2000/svg">
<path d="M173 226.2L1.52588e-05 226.2L1.5626e-05 222L173 222L173 226.2ZM173 222L168.8 222L168.8 173L173 173L173 222ZM226.2 173L168.8 173L168.8 168.8L226.2 168.8L226.2 173ZM226.2 168.8L222 168.8L222 0.000197997L226.2 0.000198364L226.2 168.8Z" fill="url(#paint0_linear_102_974)"/>
<mask id="mask0_102_974" style="mask-type:luminance" maskUnits="userSpaceOnUse" x="0" y="0" width="227" height="227">
<path d="M173 226.2L1.52588e-05 226.2L1.5626e-05 222L173 222L173 226.2ZM173 222L168.8 222L168.8 173L173 173L173 222ZM226.2 173L168.8 173L168.8 168.8L226.2 168.8L226.2 173ZM226.2 168.8L222 168.8L222 0.000197997L226.2 0.000198364L226.2 168.8Z" fill="white"/>
</mask>
<g mask="url(#mask0_102_974)">
<path d="M226.2 0.000198364L226.2 226.2L1.52588e-05 226.2L3.50338e-05 0.000178589L226.2 0.000198364Z" fill="url(#paint1_linear_102_974)"/>
</g>
<path d="M173 226.2L1.52588e-05 226.2L1.5626e-05 222L173 222L173 226.2ZM173 222L168.8 222L168.8 173L173 173L173 222ZM226.2 173L168.8 173L168.8 168.8L226.2 168.8L226.2 173ZM226.2 168.8L222 168.8L222 0.000197997L226.2 0.000198364L226.2 168.8Z" fill="url(#paint2_linear_102_974)"/>
<defs>
<linearGradient id="paint0_linear_102_974" x1="222.5" y1="224" x2="1" y2="2.49997" gradientUnits="userSpaceOnUse">
<stop stop-color="#BAA485"/>
<stop offset="0.495" stop-color="#544A3C" stop-opacity="0"/>
</linearGradient>
<linearGradient id="paint1_linear_102_974" x1="222.5" y1="224" x2="1" y2="2.49997" gradientUnits="userSpaceOnUse">
<stop stop-color="#BAA485"/>
<stop offset="0.495" stop-color="#544A3C" stop-opacity="0"/>
</linearGradient>
<linearGradient id="paint2_linear_102_974" x1="222.5" y1="224" x2="1" y2="2.49997" gradientUnits="userSpaceOnUse">
<stop stop-color="#BAA485"/>
<stop offset="0.495" stop-color="#544A3C" stop-opacity="0"/>
</linearGradient>
</defs>
</svg>
